<svg width="30" height="31" viewBox="0 0 30 31" fill="none" xmlns="http://www.w3.org/2000/svg">
<path d="M23.3959 11.6109C23.2929 11.4802 23.1271 11.3993 22.947 11.3925L11.7814 10.9664C11.461 10.954 11.1933 11.173 11.1796 11.4553C11.166 11.7375 11.4129 11.976 11.7318 11.9881L22.1414 12.3855L20.0946 18.0399H10.9863L9.34079 10.1064C9.30462 9.93257 9.16979 9.78751 8.98385 9.72292L6.28872 8.78541C5.99168 8.68244 5.6565 8.81163 5.53984 9.07432C5.42339 9.33715 5.56925 9.63411 5.86613 9.7374L8.26253 10.571L9.93712 18.6437C9.98759 18.8863 10.2265 19.0626 10.5053 19.0626H10.783L10.1487 20.6227C10.0956 20.7534 10.1175 20.8985 10.2079 21.012C10.2981 21.1256 10.4448 21.1931 10.6015 21.1931H11.0464C10.7707 21.4648 10.6015 21.8225 10.6015 22.2159C10.6015 23.0618 11.3789 23.75 12.3341 23.75C13.2893 23.75 14.0667 23.0618 14.0667 22.2159C14.0667 21.8226 13.8975 21.4648 13.6218 21.1931H17.3993C17.1235 21.4648 16.9543 21.8225 16.9543 22.2159C16.9543 23.0618 17.7315 23.75 18.6869 23.75C19.6424 23.75 20.4195 23.0618 20.4195 22.2159C20.4195 21.8226 20.2503 21.4648 19.9747 21.1931H20.5158C20.7817 21.1931 20.9971 21.0024 20.9971 20.767C20.9971 20.5316 20.7816 20.3409 20.5158 20.3409H11.2863L11.806 19.0625H20.5158C20.7669 19.0625 20.9891 18.9188 21.0656 18.7072L23.472 12.0594C23.5273 11.9076 23.4989 11.7417 23.3959 11.6109ZM12.3341 22.8979C11.9094 22.8979 11.5641 22.5921 11.5641 22.2161C11.5641 21.84 11.9094 21.5342 12.3341 21.5342C12.7588 21.5342 13.1042 21.84 13.1042 22.2161C13.1042 22.5921 12.7588 22.8979 12.3341 22.8979ZM18.6869 22.8979C18.2622 22.8979 17.9169 22.5921 17.9169 22.2161C17.9169 21.84 18.2622 21.5342 18.6869 21.5342C19.1116 21.5342 19.4569 21.84 19.4569 22.2161C19.4569 22.5921 19.1116 22.8979 18.6869 22.8979Z" fill="currentColor"/>
<circle cx="15" cy="15.5" r="14.5" stroke="currentColor"/>
</svg>
