<svg width="25" height="25" viewBox="0 0 25 25" fill="none" xmlns="http://www.w3.org/2000/svg">
<path d="M5 8.49946C5 8.10178 5.14816 7.72039 5.41188 7.43918C5.6756 7.15798 6.03329 7 6.40625 7H14.8438C15.2167 7 15.5744 7.15798 15.8381 7.43918C16.1018 7.72039 16.25 8.10178 16.25 8.49946V9.99892H17.2063C17.4169 9.99912 17.6249 10.0498 17.8148 10.1472C18.0046 10.2446 18.1715 10.3863 18.3031 10.5617L19.6916 12.4111C19.8913 12.6771 20.0001 13.0079 20 13.3487V15.4969C20 15.8946 19.8518 16.276 19.5881 16.5572C19.3244 16.8384 18.9667 16.9964 18.5938 16.9964H18.125C18.125 17.5266 17.9275 18.0352 17.5758 18.4101C17.2242 18.785 16.7473 18.9957 16.25 18.9957C15.7527 18.9957 15.2758 18.785 14.9242 18.4101C14.5725 18.0352 14.375 17.5266 14.375 16.9964H9.6875C9.68804 17.2629 9.63861 17.5268 9.54211 17.7726C9.44562 18.0185 9.30401 18.2412 9.12561 18.4279C8.94721 18.6145 8.73561 18.7612 8.50327 18.8594C8.27092 18.9576 8.02252 19.0052 7.77265 18.9995C7.52278 18.9939 7.2765 18.935 7.04828 18.8264C6.82006 18.7178 6.6145 18.5616 6.4437 18.3671C6.2729 18.1725 6.1403 17.9435 6.05369 17.6936C5.96708 17.4436 5.92821 17.1777 5.93937 16.9114C5.66473 16.8084 5.42687 16.6169 5.2586 16.3636C5.09034 16.1102 4.99998 15.8074 5 15.4969V8.49946ZM6.21313 15.9528C6.38263 15.6569 6.62142 15.4131 6.90603 15.2454C7.19064 15.0777 7.51128 14.9918 7.83643 14.9963C8.16158 15.0007 8.48006 15.0953 8.76055 15.2707C9.04104 15.4461 9.27391 15.6963 9.43625 15.9968H14.6262C14.7912 15.6931 15.0278 15.4409 15.3125 15.265V8.49946C15.3125 8.3669 15.2631 8.23977 15.1752 8.14603C15.0873 8.0523 14.9681 7.99964 14.8438 7.99964H6.40625C6.28193 7.99964 6.1627 8.0523 6.07479 8.14603C5.98689 8.23977 5.9375 8.3669 5.9375 8.49946V15.4969C5.93743 15.5932 5.96339 15.6873 6.01228 15.7682C6.06118 15.849 6.13091 15.9131 6.21313 15.9528ZM16.25 14.9971C16.5791 14.9971 16.9024 15.0895 17.1875 15.265C17.4725 15.4405 17.7092 15.6928 17.8738 15.9968H18.5938C18.7181 15.9968 18.8373 15.9441 18.9252 15.8504C19.0131 15.7566 19.0625 15.6295 19.0625 15.4969V13.3477C19.0623 13.2343 19.0259 13.1243 18.9594 13.0358L17.5719 11.1865C17.528 11.128 17.4724 11.0807 17.4091 11.0481C17.3458 11.0156 17.2765 10.9987 17.2063 10.9986H16.25V14.9971ZM7.8125 15.9968C7.56386 15.9968 7.3254 16.1021 7.14959 16.2896C6.97377 16.477 6.875 16.7313 6.875 16.9964C6.875 17.2615 6.97377 17.5158 7.14959 17.7033C7.3254 17.8907 7.56386 17.996 7.8125 17.996C8.06114 17.996 8.2996 17.8907 8.47541 17.7033C8.65123 17.5158 8.75 17.2615 8.75 16.9964C8.75 16.7313 8.65123 16.477 8.47541 16.2896C8.2996 16.1021 8.06114 15.9968 7.8125 15.9968ZM16.25 15.9968C16.0014 15.9968 15.7629 16.1021 15.5871 16.2896C15.4113 16.477 15.3125 16.7313 15.3125 16.9964C15.3125 17.2615 15.4113 17.5158 15.5871 17.7033C15.7629 17.8907 16.0014 17.996 16.25 17.996C16.4986 17.996 16.7371 17.8907 16.9129 17.7033C17.0887 17.5158 17.1875 17.2615 17.1875 16.9964C17.1875 16.7313 17.0887 16.477 16.9129 16.2896C16.7371 16.1021 16.4986 15.9968 16.25 15.9968Z" fill="currentColor"/>
<rect x="0.5" y="0.5" width="24" height="24" rx="12" stroke="currentColor"/>
</svg>
