<svg width="21" height="20" viewBox="0 0 21 20" fill="none" xmlns="http://www.w3.org/2000/svg">
<path d="M10.6667 0C5.1439 0 0.666687 4.47721 0.666687 10C0.666687 15.5228 5.1439 20 10.6667 20C16.1895 20 20.6667 15.5228 20.6667 10C20.6605 4.47982 16.1869 0.00618492 10.6667 0ZM10.6667 19.3333C5.51206 19.3333 1.33335 15.1546 1.33335 10C1.33335 4.84538 5.51206 0.666667 10.6667 0.666667C15.8213 0.666667 20 4.84538 20 10C19.9942 15.1522 15.8189 19.3275 10.6667 19.3333Z" fill="currentColor"/>
<path d="M15.3334 6H6.00002C5.81594 6 5.66669 6.14925 5.66669 6.33333V13.6667C5.66669 13.8507 5.81594 14 6.00002 14H15.3334C15.5174 14 15.6667 13.8507 15.6667 13.6667V6.33333C15.6667 6.14925 15.5174 6 15.3334 6ZM14.4333 6.66667L10.6667 9.89437L6.90009 6.66667H14.4333ZM6.33335 13.3333V7.05794L10.4497 10.5863C10.5744 10.693 10.7583 10.693 10.883 10.5863L15 7.05794V13.3333H6.33335Z" fill="currentColor"/>
</svg>
