<svg width="21" height="20" viewBox="0 0 21 20" fill="none" xmlns="http://www.w3.org/2000/svg">
<path d="M15.9062 7.36086L15.9062 7.36087C15.9902 7.46759 16.0146 7.60523 15.9685 7.73177L15.9062 7.36086ZM15.9062 7.36086C15.8227 7.25493 15.6909 7.19204 15.5508 7.18674C15.5508 7.18674 15.5508 7.18674 15.5508 7.18674L8.10716 6.90264L15.9062 7.36086ZM7.62816 7.29992L7.62816 7.2999C7.63967 7.06263 7.86091 6.89312 8.10711 6.90264L7.62816 7.29992ZM7.62816 7.29992C7.61667 7.53811 7.82296 7.72437 8.06832 7.7337M7.62816 7.29992L8.06832 7.7337M7.32723 12.4501H7.2535C7.03839 12.4501 6.84341 12.3134 6.80132 12.111L6.80131 12.111L5.69355 6.77085L4.13611 6.2291L4.1361 6.2291C3.90355 6.14819 3.77647 5.90742 3.87466 5.68583L3.87468 5.68577C3.97051 5.46999 4.23764 5.37322 4.46705 5.45275L4.46712 5.45277L6.26385 6.07777L6.26388 6.07778L6.23923 6.14861L7.32723 12.4501ZM7.32723 12.4501L6.94634 13.3869L6.94633 13.3869C6.90043 13.4999 6.91997 13.6251 6.99652 13.7213L7.32723 12.4501ZM8.06832 7.7337L14.9055 7.99467L13.5938 11.6183H7.63527L8.06832 7.7337ZM14.3643 12.1636L15.9685 7.73191L6.99655 13.7214C7.07218 13.8165 7.19246 13.8704 7.31766 13.8704H7.4493C7.31965 14.0434 7.24266 14.2517 7.24266 14.4773C7.24266 15.091 7.80334 15.575 8.47272 15.575C9.1421 15.575 9.70279 15.091 9.70279 14.4773C9.70279 14.2517 9.62579 14.0434 9.49616 13.8704H11.6845C11.5549 14.0434 11.4779 14.2517 11.4779 14.4773C11.4779 15.091 12.0384 15.575 12.7079 15.575C13.3775 15.575 13.938 15.091 13.938 14.4773C13.938 14.2517 13.861 14.0434 13.7314 13.8704H13.9272C14.137 13.8704 14.3231 13.718 14.3231 13.5114C14.3231 13.3047 14.137 13.1523 13.9272 13.1523H7.88564L8.17113 12.45H13.9272C14.1214 12.45 14.301 12.3387 14.3643 12.1637C14.3643 12.1637 14.3643 12.1637 14.3643 12.1636ZM8.47275 14.8569C8.2222 14.8569 8.03437 14.6783 8.03437 14.4774C8.03437 14.2764 8.22221 14.0978 8.47275 14.0978C8.72329 14.0978 8.9111 14.2764 8.9111 14.4774C8.9111 14.6783 8.72329 14.8569 8.47275 14.8569ZM12.7079 14.8569C12.4574 14.8569 12.2696 14.6783 12.2696 14.4774C12.2696 14.2764 12.4574 14.0978 12.7079 14.0978C12.9585 14.0978 13.1463 14.2764 13.1463 14.4774C13.1463 14.6783 12.9585 14.8569 12.7079 14.8569Z" fill="currentColor" stroke="currentColor" stroke-width="0.15"/>
<circle cx="10.25" cy="10" r="9.5" stroke="currentColor"/>
</svg>
