<svg width="20" height="20" viewBox="0 0 20 20" fill="none" xmlns="http://www.w3.org/2000/svg">
<g clip-path="url(#clip0_1128_7420)">
<path d="M17.7764 6.00332C17.7762 6.85564 17.6281 7.70117 17.3391 8.50056C17.0475 9.31322 16.6315 9.73524 16.0902 10.2889C15.3812 11.016 14.5391 11.5932 13.6121 11.9875C12.6999 12.3702 10.4579 12.5621 9.10081 12.5621H8.07785V15.647H1.32117V0H9.21334C10.3949 0 12.5005 0.104633 13.312 0.313027C14.0763 0.500768 14.8045 0.818191 15.4662 1.25211C16.1936 1.72991 16.7857 2.3947 17.1831 3.17997C17.5786 3.96647 17.7764 4.90758 17.7764 6.00332ZM8.07955 3.55055V8.97316C8.89537 8.97316 8.97124 8.96618 9.50659 8.90689C10.0624 8.84585 10.6054 8.67757 10.8364 8.47092C11.1365 8.20961 11.3675 7.87528 11.5082 7.4987C11.6557 7.05369 11.7252 6.58554 11.7136 6.1158C11.7252 5.61928 11.5753 5.13288 11.2874 4.7329C11.0385 4.37404 10.6962 4.09372 10.2994 3.92374C9.83449 3.72759 9.34044 3.61349 8.83825 3.5863" fill="#0061AA"/>
<path d="M19.5122 16.998H0V18.4995H19.5122V16.998Z" fill="#FD810D"/>
</g>
<defs>
<clipPath id="clip0_1128_7420">
<rect width="20" height="20" fill="white"/>
</clipPath>
</defs>
</svg>
