<svg width="20" height="20" viewBox="0 0 20 20" fill="none" xmlns="http://www.w3.org/2000/svg">
<g clip-path="url(#clip0_1061_13310)">
<path d="M12.0192 6.78748H13V5.00109H11.2176C11.0689 4.99492 9.25647 4.96035 8.7867 6.74757C8.77989 6.76629 8.62976 7.19134 8.62976 8.18421L7 8.18915V10.0628L8.63183 10.058V15H11.1244V10.0624H12.7742V8.1838H11.1244V7.59273C11.1244 7.22529 11.2797 6.78748 12.0192 6.78748ZM12.3617 8.59507V9.65069H10.712V14.5883H9.04427V9.64534L7.41244 9.65007V8.59939L9.0486 8.59466L9.04427 8.38542C9.02282 7.33371 9.17316 6.89138 9.17996 6.87019C9.58539 5.33088 11.1335 5.40824 11.1999 5.41235L12.5876 5.41276V6.37622H12.0192C11.0555 6.37622 10.7122 7.00453 10.7122 7.59252V8.59507H12.3617Z" fill="currentColor"/>
<path d="M10 0C4.47721 0 0 4.47721 0 10C0 15.5228 4.47721 20 10 20C15.5228 20 20 15.5228 20 10C19.9938 4.47982 15.5202 0.00618492 10 0ZM10 19.3333C4.84538 19.3333 0.666667 15.1546 0.666667 10C0.666667 4.84538 4.84538 0.666667 10 0.666667C15.1546 0.666667 19.3333 4.84538 19.3333 10C19.3275 15.1522 15.1522 19.3275 10 19.3333Z" fill="currentColor"/>
</g>
<defs>
<clipPath id="clip0_1061_13310">
<rect width="20" height="20" fill="white"/>
</clipPath>
</defs>
</svg>
