<svg width="21" height="20" viewBox="0 0 21 20" fill="none" xmlns="http://www.w3.org/2000/svg">
<path d="M16.4281 12.1073L16.499 12.0368C16.9671 12.508 16.9672 13.2742 16.4991 13.7454C16.0295 14.2182 15.269 14.2182 14.7994 13.7455L12.1783 11.1072C11.0232 11.6134 9.59748 11.4114 8.61898 10.4265C7.36509 9.16437 7.36509 7.11123 8.61898 5.84909M16.4281 12.1073L8.68993 5.91957M16.4281 12.1073L16.499 12.0368L13.8627 9.38317M16.4281 12.1073L13.8627 9.38317M8.61898 5.84909L8.68993 5.91957M8.61898 5.84909C8.61898 5.84909 8.61898 5.84909 8.61898 5.84909L8.68993 5.91957M8.61898 5.84909C9.87624 4.58355 11.9115 4.58372 13.1686 5.84909C14.1165 6.80326 14.3473 8.20897 13.8627 9.38317M8.68993 5.91957C9.90808 4.69339 11.8796 4.69356 13.0976 5.91957C14.0325 6.86058 14.2479 8.2555 13.7444 9.40594L13.8153 9.33546L13.8627 9.38317M12.5294 9.78524L12.6003 9.85572L12.5294 9.78524C11.6253 10.6953 10.1623 10.6954 9.25812 9.78525L9.18718 9.85572L9.25812 9.78524C8.35578 8.87698 8.35578 7.39864 9.25812 6.49036C10.1622 5.58033 11.6252 5.58018 12.5294 6.49036C13.4317 7.39864 13.4317 8.87698 12.5294 9.78524ZM15.4386 13.1042L15.4386 13.1042L12.9652 10.6146C13.1177 10.4851 13.2577 10.3422 13.3844 10.1863L15.8599 12.6781C15.9765 12.7954 15.9765 12.9869 15.8599 13.1042C15.7434 13.2216 15.5551 13.2216 15.4386 13.1042Z" fill="currentColor" stroke="currentColor" stroke-width="0.2"/>
<path d="M5.10158 9.33984H6.60076C6.85074 9.33984 7.05233 9.13606 7.05233 8.88604C7.05233 8.63601 6.85074 8.43223 6.60076 8.43223H5.10158C4.85159 8.43223 4.65 8.63601 4.65 8.88604C4.65 9.13606 4.85159 9.33984 5.10158 9.33984Z" fill="currentColor" stroke="currentColor" stroke-width="0.2"/>
<path d="M5.10158 10.8496H7.16295C7.41294 10.8496 7.61453 10.6458 7.61453 10.3958C7.61453 10.1458 7.41294 9.94199 7.16295 9.94199H5.10158C4.85159 9.94199 4.65 10.1458 4.65 10.3958C4.65 10.6458 4.85159 10.8496 5.10158 10.8496Z" fill="currentColor" stroke="currentColor" stroke-width="0.2"/>
<path d="M5.10158 12.3584H8.66215C8.91214 12.3584 9.11373 12.1546 9.11373 11.9046C9.11373 11.6546 8.91214 11.4508 8.66215 11.4508H5.10158C4.85159 11.4508 4.65 11.6546 4.65 11.9046C4.65 12.1546 4.85159 12.3584 5.10158 12.3584Z" fill="currentColor" stroke="currentColor" stroke-width="0.2"/>
<path d="M12.785 12.9605H5.10158C4.85159 12.9605 4.65 13.1643 4.65 13.4144C4.65 13.6644 4.85159 13.8682 5.10158 13.8682H12.785C13.0349 13.8682 13.2365 13.6644 13.2365 13.4144C13.2365 13.1643 13.0349 12.9605 12.785 12.9605Z" fill="currentColor" stroke="currentColor" stroke-width="0.2"/>
<circle cx="10.75" cy="10" r="9.5" stroke="currentColor"/>
</svg>
