<svg width="20" height="20" viewBox="0 0 20 20" fill="none" xmlns="http://www.w3.org/2000/svg">
<mask id="path-1-outside-1_1128_7453" maskUnits="userSpaceOnUse" x="-0.799805" y="-0.799805" width="21" height="21" fill="black">
<rect fill="white" x="-0.799805" y="-0.799805" width="21" height="21"/>
<path d="M10.0002 0.200195C4.59648 0.200195 0.200195 4.59648 0.200195 10.0002C0.200195 12.3669 1.04365 14.5402 2.4457 16.2356C2.4493 16.2405 2.44962 16.2467 2.45354 16.2513C3.46588 17.472 4.73727 18.4079 6.15402 19.0126C6.17036 19.0195 6.18636 19.027 6.2027 19.0338C6.31736 19.0822 6.43332 19.1269 6.54962 19.1707C6.59535 19.188 6.64108 19.2057 6.68747 19.2223C6.78776 19.2583 6.8887 19.2922 6.99029 19.3249C7.0553 19.3458 7.1203 19.3664 7.18596 19.386C7.2758 19.4128 7.36596 19.4386 7.45677 19.4631C7.53648 19.4846 7.61684 19.5046 7.6972 19.5238C7.77854 19.5434 7.8602 19.563 7.9422 19.5803C8.03366 19.5999 8.12611 19.6173 8.21888 19.6343C8.29336 19.648 8.36752 19.6623 8.44265 19.6744C8.54555 19.6911 8.6491 19.7042 8.75298 19.7176C8.81995 19.726 8.88659 19.7358 8.95388 19.743C9.07148 19.7554 9.19006 19.7643 9.30897 19.7724C9.36418 19.7764 9.41906 19.7822 9.47459 19.7852C9.64805 19.795 9.82347 19.8002 10.0002 19.8002C10.1769 19.8002 10.3523 19.795 10.5265 19.7858C10.582 19.7829 10.6369 19.777 10.6921 19.7731C10.811 19.7646 10.9296 19.7561 11.0472 19.7437C11.1145 19.7365 11.1811 19.7267 11.2481 19.7182C11.3519 19.7048 11.4555 19.6917 11.5584 19.6751C11.6332 19.663 11.7077 19.6486 11.7822 19.6349C11.8746 19.6179 11.9671 19.6006 12.0588 19.581C12.1408 19.5634 12.2222 19.5441 12.3038 19.5245C12.3842 19.5049 12.4646 19.485 12.5443 19.4637C12.6351 19.4396 12.7252 19.4134 12.8151 19.3866C12.8807 19.367 12.9457 19.3465 13.0108 19.3256C13.1123 19.2929 13.2133 19.2589 13.3136 19.223C13.3596 19.2063 13.4054 19.1887 13.4514 19.1714C13.568 19.1276 13.6837 19.0825 13.7983 19.0345C13.8147 19.0276 13.8307 19.0201 13.847 19.0133C15.2634 18.4086 16.5352 17.4727 17.5475 16.2519C17.5514 16.2474 17.5517 16.2408 17.5553 16.2363C18.9567 14.5402 19.8002 12.3669 19.8002 10.0002C19.8002 4.59648 15.4039 0.200195 10.0002 0.200195ZM13.9715 18.2387C13.9666 18.241 13.962 18.2436 13.9571 18.2459C13.8405 18.3021 13.7219 18.355 13.6023 18.4066C13.5752 18.4181 13.5484 18.4298 13.5213 18.4413C13.4168 18.485 13.311 18.5265 13.2045 18.5664C13.16 18.583 13.1156 18.5994 13.0709 18.615C12.9765 18.6487 12.8817 18.681 12.786 18.7117C12.7266 18.7307 12.6668 18.7487 12.607 18.7663C12.5221 18.7918 12.4368 18.8163 12.3506 18.8391C12.278 18.8584 12.2049 18.8761 12.1317 18.8934C12.0549 18.9117 11.9785 18.9303 11.9011 18.9466C11.8165 18.9646 11.7312 18.9799 11.6463 18.9953C11.5773 19.008 11.5087 19.0214 11.4392 19.0325C11.3434 19.0476 11.2468 19.0596 11.1504 19.0717C11.0893 19.0796 11.0285 19.0887 10.9668 19.0952C10.8567 19.107 10.7456 19.1145 10.6349 19.1224C10.5856 19.1256 10.5366 19.1312 10.4866 19.1338C10.3249 19.1423 10.1629 19.1469 10.0002 19.1469C9.83752 19.1469 9.67549 19.1423 9.51412 19.1338C9.46446 19.1312 9.41546 19.126 9.36581 19.1224C9.25474 19.1148 9.144 19.107 9.03392 19.0952C8.97218 19.0887 8.91142 19.0796 8.85033 19.0717C8.75396 19.0596 8.65727 19.0476 8.56156 19.0325C8.49198 19.0214 8.42338 19.008 8.35445 18.9953C8.26919 18.9799 8.18393 18.9643 8.09965 18.9466C8.02223 18.9303 7.94546 18.9117 7.86902 18.8934C7.79585 18.8757 7.72268 18.8584 7.65016 18.8391C7.56424 18.8163 7.47866 18.7914 7.39372 18.7663C7.33394 18.7487 7.27416 18.7307 7.21471 18.7117C7.119 18.681 7.02394 18.6487 6.92986 18.615C6.8851 18.599 6.84068 18.5827 6.79625 18.5664C6.68976 18.5265 6.58392 18.485 6.47938 18.4413C6.45227 18.4302 6.42581 18.4184 6.3987 18.407C6.27914 18.3557 6.16056 18.3024 6.04361 18.2462C6.03871 18.244 6.03414 18.2417 6.02924 18.2391C4.8895 17.6876 3.88271 16.9049 3.06572 15.9543C3.69716 13.6291 5.48468 11.7547 7.78442 11.0089C7.82982 11.0367 7.87719 11.0615 7.9239 11.0877C7.95134 11.103 7.97846 11.1194 8.00622 11.1341C8.10357 11.1857 8.20222 11.234 8.30316 11.2775C8.38058 11.3114 8.46062 11.3402 8.54032 11.3696C8.556 11.3751 8.57168 11.3813 8.58736 11.3869C9.03032 11.5437 9.50432 11.6335 10.0002 11.6335C10.4961 11.6335 10.9701 11.5437 11.4127 11.3869C11.4284 11.3813 11.4441 11.3751 11.4597 11.3696C11.5394 11.3402 11.6195 11.3114 11.6969 11.2775C11.7978 11.234 11.8965 11.1857 11.9938 11.1341C12.0216 11.119 12.0487 11.103 12.0762 11.0877C12.1229 11.0615 12.1706 11.0367 12.2163 11.0086C14.516 11.7547 16.3032 13.6291 16.935 15.954C16.118 16.9043 15.1112 17.687 13.9715 18.2387ZM6.40686 7.38686C6.40686 5.40563 8.01896 3.79353 10.0002 3.79353C11.9814 3.79353 13.5935 5.40563 13.5935 7.38686C13.5935 8.64714 12.9399 9.75618 11.955 10.3977C11.8263 10.4814 11.6923 10.5562 11.5548 10.6215C11.5385 10.6294 11.5225 10.6375 11.5061 10.645C10.5601 11.0753 9.44029 11.0753 8.49426 10.645C8.47793 10.6375 8.4616 10.6294 8.44559 10.6215C8.30774 10.5562 8.17413 10.4814 8.04542 10.3977C7.06052 9.75618 6.40686 8.64714 6.40686 7.38686ZM17.425 15.3324C16.6845 13.1457 14.9949 11.3784 12.8363 10.5389C13.6997 9.76108 14.2469 8.638 14.2469 7.38686C14.2469 5.04532 12.3417 3.1402 10.0002 3.1402C7.65865 3.1402 5.75353 5.04532 5.75353 7.38686C5.75353 8.638 6.3007 9.76108 7.1644 10.5389C5.00579 11.3787 3.31627 13.1457 2.57572 15.3324C1.49347 13.83 0.853529 11.9889 0.853529 10.0002C0.853529 4.95679 4.95679 0.853529 10.0002 0.853529C15.0436 0.853529 19.1469 4.95679 19.1469 10.0002C19.1469 11.9889 18.5069 13.83 17.425 15.3324Z"/>
</mask>
<path d="M10.0002 0.200195C4.59648 0.200195 0.200195 4.59648 0.200195 10.0002C0.200195 12.3669 1.04365 14.5402 2.4457 16.2356C2.4493 16.2405 2.44962 16.2467 2.45354 16.2513C3.46588 17.472 4.73727 18.4079 6.15402 19.0126C6.17036 19.0195 6.18636 19.027 6.2027 19.0338C6.31736 19.0822 6.43332 19.1269 6.54962 19.1707C6.59535 19.188 6.64108 19.2057 6.68747 19.2223C6.78776 19.2583 6.8887 19.2922 6.99029 19.3249C7.0553 19.3458 7.1203 19.3664 7.18596 19.386C7.2758 19.4128 7.36596 19.4386 7.45677 19.4631C7.53648 19.4846 7.61684 19.5046 7.6972 19.5238C7.77854 19.5434 7.8602 19.563 7.9422 19.5803C8.03366 19.5999 8.12611 19.6173 8.21888 19.6343C8.29336 19.648 8.36752 19.6623 8.44265 19.6744C8.54555 19.6911 8.6491 19.7042 8.75298 19.7176C8.81995 19.726 8.88659 19.7358 8.95388 19.743C9.07148 19.7554 9.19006 19.7643 9.30897 19.7724C9.36418 19.7764 9.41906 19.7822 9.47459 19.7852C9.64805 19.795 9.82347 19.8002 10.0002 19.8002C10.1769 19.8002 10.3523 19.795 10.5265 19.7858C10.582 19.7829 10.6369 19.777 10.6921 19.7731C10.811 19.7646 10.9296 19.7561 11.0472 19.7437C11.1145 19.7365 11.1811 19.7267 11.2481 19.7182C11.3519 19.7048 11.4555 19.6917 11.5584 19.6751C11.6332 19.663 11.7077 19.6486 11.7822 19.6349C11.8746 19.6179 11.9671 19.6006 12.0588 19.581C12.1408 19.5634 12.2222 19.5441 12.3038 19.5245C12.3842 19.5049 12.4646 19.485 12.5443 19.4637C12.6351 19.4396 12.7252 19.4134 12.8151 19.3866C12.8807 19.367 12.9457 19.3465 13.0108 19.3256C13.1123 19.2929 13.2133 19.2589 13.3136 19.223C13.3596 19.2063 13.4054 19.1887 13.4514 19.1714C13.568 19.1276 13.6837 19.0825 13.7983 19.0345C13.8147 19.0276 13.8307 19.0201 13.847 19.0133C15.2634 18.4086 16.5352 17.4727 17.5475 16.2519C17.5514 16.2474 17.5517 16.2408 17.5553 16.2363C18.9567 14.5402 19.8002 12.3669 19.8002 10.0002C19.8002 4.59648 15.4039 0.200195 10.0002 0.200195ZM13.9715 18.2387C13.9666 18.241 13.962 18.2436 13.9571 18.2459C13.8405 18.3021 13.7219 18.355 13.6023 18.4066C13.5752 18.4181 13.5484 18.4298 13.5213 18.4413C13.4168 18.485 13.311 18.5265 13.2045 18.5664C13.16 18.583 13.1156 18.5994 13.0709 18.615C12.9765 18.6487 12.8817 18.681 12.786 18.7117C12.7266 18.7307 12.6668 18.7487 12.607 18.7663C12.5221 18.7918 12.4368 18.8163 12.3506 18.8391C12.278 18.8584 12.2049 18.8761 12.1317 18.8934C12.0549 18.9117 11.9785 18.9303 11.9011 18.9466C11.8165 18.9646 11.7312 18.9799 11.6463 18.9953C11.5773 19.008 11.5087 19.0214 11.4392 19.0325C11.3434 19.0476 11.2468 19.0596 11.1504 19.0717C11.0893 19.0796 11.0285 19.0887 10.9668 19.0952C10.8567 19.107 10.7456 19.1145 10.6349 19.1224C10.5856 19.1256 10.5366 19.1312 10.4866 19.1338C10.3249 19.1423 10.1629 19.1469 10.0002 19.1469C9.83752 19.1469 9.67549 19.1423 9.51412 19.1338C9.46446 19.1312 9.41546 19.126 9.36581 19.1224C9.25474 19.1148 9.144 19.107 9.03392 19.0952C8.97218 19.0887 8.91142 19.0796 8.85033 19.0717C8.75396 19.0596 8.65727 19.0476 8.56156 19.0325C8.49198 19.0214 8.42338 19.008 8.35445 18.9953C8.26919 18.9799 8.18393 18.9643 8.09965 18.9466C8.02223 18.9303 7.94546 18.9117 7.86902 18.8934C7.79585 18.8757 7.72268 18.8584 7.65016 18.8391C7.56424 18.8163 7.47866 18.7914 7.39372 18.7663C7.33394 18.7487 7.27416 18.7307 7.21471 18.7117C7.119 18.681 7.02394 18.6487 6.92986 18.615C6.8851 18.599 6.84068 18.5827 6.79625 18.5664C6.68976 18.5265 6.58392 18.485 6.47938 18.4413C6.45227 18.4302 6.42581 18.4184 6.3987 18.407C6.27914 18.3557 6.16056 18.3024 6.04361 18.2462C6.03871 18.244 6.03414 18.2417 6.02924 18.2391C4.8895 17.6876 3.88271 16.9049 3.06572 15.9543C3.69716 13.6291 5.48468 11.7547 7.78442 11.0089C7.82982 11.0367 7.87719 11.0615 7.9239 11.0877C7.95134 11.103 7.97846 11.1194 8.00622 11.1341C8.10357 11.1857 8.20222 11.234 8.30316 11.2775C8.38058 11.3114 8.46062 11.3402 8.54032 11.3696C8.556 11.3751 8.57168 11.3813 8.58736 11.3869C9.03032 11.5437 9.50432 11.6335 10.0002 11.6335C10.4961 11.6335 10.9701 11.5437 11.4127 11.3869C11.4284 11.3813 11.4441 11.3751 11.4597 11.3696C11.5394 11.3402 11.6195 11.3114 11.6969 11.2775C11.7978 11.234 11.8965 11.1857 11.9938 11.1341C12.0216 11.119 12.0487 11.103 12.0762 11.0877C12.1229 11.0615 12.1706 11.0367 12.2163 11.0086C14.516 11.7547 16.3032 13.6291 16.935 15.954C16.118 16.9043 15.1112 17.687 13.9715 18.2387ZM6.40686 7.38686C6.40686 5.40563 8.01896 3.79353 10.0002 3.79353C11.9814 3.79353 13.5935 5.40563 13.5935 7.38686C13.5935 8.64714 12.9399 9.75618 11.955 10.3977C11.8263 10.4814 11.6923 10.5562 11.5548 10.6215C11.5385 10.6294 11.5225 10.6375 11.5061 10.645C10.5601 11.0753 9.44029 11.0753 8.49426 10.645C8.47793 10.6375 8.4616 10.6294 8.44559 10.6215C8.30774 10.5562 8.17413 10.4814 8.04542 10.3977C7.06052 9.75618 6.40686 8.64714 6.40686 7.38686ZM17.425 15.3324C16.6845 13.1457 14.9949 11.3784 12.8363 10.5389C13.6997 9.76108 14.2469 8.638 14.2469 7.38686C14.2469 5.04532 12.3417 3.1402 10.0002 3.1402C7.65865 3.1402 5.75353 5.04532 5.75353 7.38686C5.75353 8.638 6.3007 9.76108 7.1644 10.5389C5.00579 11.3787 3.31627 13.1457 2.57572 15.3324C1.49347 13.83 0.853529 11.9889 0.853529 10.0002C0.853529 4.95679 4.95679 0.853529 10.0002 0.853529C15.0436 0.853529 19.1469 4.95679 19.1469 10.0002C19.1469 11.9889 18.5069 13.83 17.425 15.3324Z" fill="currentColor"/>
<path d="M10.0002 0.200195C4.59648 0.200195 0.200195 4.59648 0.200195 10.0002C0.200195 12.3669 1.04365 14.5402 2.4457 16.2356C2.4493 16.2405 2.44962 16.2467 2.45354 16.2513C3.46588 17.472 4.73727 18.4079 6.15402 19.0126C6.17036 19.0195 6.18636 19.027 6.2027 19.0338C6.31736 19.0822 6.43332 19.1269 6.54962 19.1707C6.59535 19.188 6.64108 19.2057 6.68747 19.2223C6.78776 19.2583 6.8887 19.2922 6.99029 19.3249C7.0553 19.3458 7.1203 19.3664 7.18596 19.386C7.2758 19.4128 7.36596 19.4386 7.45677 19.4631C7.53648 19.4846 7.61684 19.5046 7.6972 19.5238C7.77854 19.5434 7.8602 19.563 7.9422 19.5803C8.03366 19.5999 8.12611 19.6173 8.21888 19.6343C8.29336 19.648 8.36752 19.6623 8.44265 19.6744C8.54555 19.6911 8.6491 19.7042 8.75298 19.7176C8.81995 19.726 8.88659 19.7358 8.95388 19.743C9.07148 19.7554 9.19006 19.7643 9.30897 19.7724C9.36418 19.7764 9.41906 19.7822 9.47459 19.7852C9.64805 19.795 9.82347 19.8002 10.0002 19.8002C10.1769 19.8002 10.3523 19.795 10.5265 19.7858C10.582 19.7829 10.6369 19.777 10.6921 19.7731C10.811 19.7646 10.9296 19.7561 11.0472 19.7437C11.1145 19.7365 11.1811 19.7267 11.2481 19.7182C11.3519 19.7048 11.4555 19.6917 11.5584 19.6751C11.6332 19.663 11.7077 19.6486 11.7822 19.6349C11.8746 19.6179 11.9671 19.6006 12.0588 19.581C12.1408 19.5634 12.2222 19.5441 12.3038 19.5245C12.3842 19.5049 12.4646 19.485 12.5443 19.4637C12.6351 19.4396 12.7252 19.4134 12.8151 19.3866C12.8807 19.367 12.9457 19.3465 13.0108 19.3256C13.1123 19.2929 13.2133 19.2589 13.3136 19.223C13.3596 19.2063 13.4054 19.1887 13.4514 19.1714C13.568 19.1276 13.6837 19.0825 13.7983 19.0345C13.8147 19.0276 13.8307 19.0201 13.847 19.0133C15.2634 18.4086 16.5352 17.4727 17.5475 16.2519C17.5514 16.2474 17.5517 16.2408 17.5553 16.2363C18.9567 14.5402 19.8002 12.3669 19.8002 10.0002C19.8002 4.59648 15.4039 0.200195 10.0002 0.200195ZM13.9715 18.2387C13.9666 18.241 13.962 18.2436 13.9571 18.2459C13.8405 18.3021 13.7219 18.355 13.6023 18.4066C13.5752 18.4181 13.5484 18.4298 13.5213 18.4413C13.4168 18.485 13.311 18.5265 13.2045 18.5664C13.16 18.583 13.1156 18.5994 13.0709 18.615C12.9765 18.6487 12.8817 18.681 12.786 18.7117C12.7266 18.7307 12.6668 18.7487 12.607 18.7663C12.5221 18.7918 12.4368 18.8163 12.3506 18.8391C12.278 18.8584 12.2049 18.8761 12.1317 18.8934C12.0549 18.9117 11.9785 18.9303 11.9011 18.9466C11.8165 18.9646 11.7312 18.9799 11.6463 18.9953C11.5773 19.008 11.5087 19.0214 11.4392 19.0325C11.3434 19.0476 11.2468 19.0596 11.1504 19.0717C11.0893 19.0796 11.0285 19.0887 10.9668 19.0952C10.8567 19.107 10.7456 19.1145 10.6349 19.1224C10.5856 19.1256 10.5366 19.1312 10.4866 19.1338C10.3249 19.1423 10.1629 19.1469 10.0002 19.1469C9.83752 19.1469 9.67549 19.1423 9.51412 19.1338C9.46446 19.1312 9.41546 19.126 9.36581 19.1224C9.25474 19.1148 9.144 19.107 9.03392 19.0952C8.97218 19.0887 8.91142 19.0796 8.85033 19.0717C8.75396 19.0596 8.65727 19.0476 8.56156 19.0325C8.49198 19.0214 8.42338 19.008 8.35445 18.9953C8.26919 18.9799 8.18393 18.9643 8.09965 18.9466C8.02223 18.9303 7.94546 18.9117 7.86902 18.8934C7.79585 18.8757 7.72268 18.8584 7.65016 18.8391C7.56424 18.8163 7.47866 18.7914 7.39372 18.7663C7.33394 18.7487 7.27416 18.7307 7.21471 18.7117C7.119 18.681 7.02394 18.6487 6.92986 18.615C6.8851 18.599 6.84068 18.5827 6.79625 18.5664C6.68976 18.5265 6.58392 18.485 6.47938 18.4413C6.45227 18.4302 6.42581 18.4184 6.3987 18.407C6.27914 18.3557 6.16056 18.3024 6.04361 18.2462C6.03871 18.244 6.03414 18.2417 6.02924 18.2391C4.8895 17.6876 3.88271 16.9049 3.06572 15.9543C3.69716 13.6291 5.48468 11.7547 7.78442 11.0089C7.82982 11.0367 7.87719 11.0615 7.9239 11.0877C7.95134 11.103 7.97846 11.1194 8.00622 11.1341C8.10357 11.1857 8.20222 11.234 8.30316 11.2775C8.38058 11.3114 8.46062 11.3402 8.54032 11.3696C8.556 11.3751 8.57168 11.3813 8.58736 11.3869C9.03032 11.5437 9.50432 11.6335 10.0002 11.6335C10.4961 11.6335 10.9701 11.5437 11.4127 11.3869C11.4284 11.3813 11.4441 11.3751 11.4597 11.3696C11.5394 11.3402 11.6195 11.3114 11.6969 11.2775C11.7978 11.234 11.8965 11.1857 11.9938 11.1341C12.0216 11.119 12.0487 11.103 12.0762 11.0877C12.1229 11.0615 12.1706 11.0367 12.2163 11.0086C14.516 11.7547 16.3032 13.6291 16.935 15.954C16.118 16.9043 15.1112 17.687 13.9715 18.2387ZM6.40686 7.38686C6.40686 5.40563 8.01896 3.79353 10.0002 3.79353C11.9814 3.79353 13.5935 5.40563 13.5935 7.38686C13.5935 8.64714 12.9399 9.75618 11.955 10.3977C11.8263 10.4814 11.6923 10.5562 11.5548 10.6215C11.5385 10.6294 11.5225 10.6375 11.5061 10.645C10.5601 11.0753 9.44029 11.0753 8.49426 10.645C8.47793 10.6375 8.4616 10.6294 8.44559 10.6215C8.30774 10.5562 8.17413 10.4814 8.04542 10.3977C7.06052 9.75618 6.40686 8.64714 6.40686 7.38686ZM17.425 15.3324C16.6845 13.1457 14.9949 11.3784 12.8363 10.5389C13.6997 9.76108 14.2469 8.638 14.2469 7.38686C14.2469 5.04532 12.3417 3.1402 10.0002 3.1402C7.65865 3.1402 5.75353 5.04532 5.75353 7.38686C5.75353 8.638 6.3007 9.76108 7.1644 10.5389C5.00579 11.3787 3.31627 13.1457 2.57572 15.3324C1.49347 13.83 0.853529 11.9889 0.853529 10.0002C0.853529 4.95679 4.95679 0.853529 10.0002 0.853529C15.0436 0.853529 19.1469 4.95679 19.1469 10.0002C19.1469 11.9889 18.5069 13.83 17.425 15.3324Z" stroke="currentColor" stroke-width="0.4" mask="url(#path-1-outside-1_1128_7453)"/>
</svg>
