<svg width="20" height="20" viewBox="0 0 20 20" fill="none" xmlns="http://www.w3.org/2000/svg">
<path d="M10 0C4.47721 0 0 4.47721 0 10C0 15.5228 4.47721 20 10 20C15.5228 20 20 15.5228 20 10C19.9938 4.47982 15.5202 0.00618492 10 0ZM10 19.3333C4.84538 19.3333 0.666667 15.1546 0.666667 10C0.666667 4.84538 4.84538 0.666667 10 0.666667C15.1546 0.666667 19.3333 4.84538 19.3333 10C19.3275 15.1522 15.1522 19.3275 10 19.3333Z" fill="currentColor"/>
<path d="M14.3333 4H5.66667C4.74658 4.00114 4.00114 4.74658 4 5.66667V14.3333C4.00114 15.2534 4.74658 15.9989 5.66667 16H14.3333C15.2534 15.9989 15.9989 15.2534 16 14.3333V5.66667C15.9989 4.74658 15.2534 4.00114 14.3333 4ZM15.3333 14.3333C15.3333 14.8856 14.8856 15.3333 14.3333 15.3333H5.66667C5.11442 15.3333 4.66667 14.8856 4.66667 14.3333V5.66667C4.66667 5.11442 5.11442 4.66667 5.66667 4.66667H14.3333C14.8856 4.66667 15.3333 5.11442 15.3333 5.66667V14.3333Z" fill="currentColor"/>
<path d="M10 6.66667C8.15904 6.66667 6.66669 8.15902 6.66669 10C6.66669 11.841 8.15904 13.3333 10 13.3333C11.841 13.3333 13.3334 11.841 13.3334 10C13.3314 8.15983 11.8402 6.66862 10 6.66667ZM10 12.6667C8.5272 12.6667 7.33335 11.4728 7.33335 10C7.33335 8.52718 8.5272 7.33333 10 7.33333C11.4728 7.33333 12.6667 8.52718 12.6667 10C12.6651 11.472 11.472 12.665 10 12.6667Z" fill="currentColor"/>
<path d="M13.6667 5.33333C13.1144 5.33333 12.6667 5.78109 12.6667 6.33333C12.6667 6.88558 13.1144 7.33333 13.6667 7.33333C14.2189 7.33333 14.6667 6.88558 14.6667 6.33333C14.6667 5.78109 14.2189 5.33333 13.6667 5.33333ZM13.6667 6.66667C13.4826 6.66667 13.3334 6.51742 13.3334 6.33333C13.3334 6.14925 13.4826 6 13.6667 6C13.8508 6 14 6.14925 14 6.33333C14 6.51742 13.8508 6.66667 13.6667 6.66667Z" fill="currentColor"/>
</svg>
