<svg width="20" height="20" viewBox="0 0 20 20" fill="none" xmlns="http://www.w3.org/2000/svg">
<path d="M10 0C4.47721 0 0 4.47721 0 10C0 15.5228 4.47721 20 10 20C15.5228 20 20 15.5228 20 10C19.9938 4.47982 15.5202 0.00618492 10 0ZM10 19.3333C4.84538 19.3333 0.666667 15.1546 0.666667 10C0.666667 4.84538 4.84538 0.666667 10 0.666667C15.1546 0.666667 19.3333 4.84538 19.3333 10C19.3275 15.1522 15.1522 19.3275 10 19.3333Z" fill="currentColor"/>
<path d="M10 5C8.20794 5 6.75 6.46912 6.75 8.27494C6.75 10.0104 9.70357 14.7065 9.8293 14.9056C9.86646 14.9644 9.93084 15 10 15C10.0692 15 10.1336 14.9644 10.1707 14.9056C10.2964 14.7065 13.25 10.0104 13.25 8.27494C13.25 6.46912 11.7921 5 10 5ZM10 14.4108C9.73272 13.9748 9.19025 13.0722 8.65309 12.0722C7.67291 10.2474 7.15481 8.93431 7.15481 8.27494C7.15479 6.69418 8.43116 5.40816 10 5.40816C11.5689 5.40816 12.8452 6.69418 12.8452 8.27494C12.8452 8.93431 12.3271 10.2474 11.3469 12.0722C10.8098 13.0722 10.2673 13.9748 10 14.4108Z" fill="currentColor"/>
<path d="M9.9997 6.55249C9.15198 6.55249 8.46231 7.229 8.46231 8.06053C8.46231 8.89204 9.15198 9.56851 9.9997 9.56851C10.8474 9.56851 11.5371 8.89204 11.5371 8.06053C11.5371 7.229 10.8474 6.55249 9.9997 6.55249ZM9.9997 9.16033C9.3752 9.16033 8.86711 8.66696 8.86711 8.06051C8.86711 7.45404 9.3752 6.96063 9.9997 6.96063C10.6242 6.96063 11.1323 7.45404 11.1323 8.06051C11.1323 8.66696 10.6242 9.16033 9.9997 9.16033Z" fill="currentColor"/>
</svg>
