<svg width="9" height="8" viewBox="0 0 9 8" fill="none" xmlns="http://www.w3.org/2000/svg">
<path d="M7.87869 3.27869C8.08635 3.27869 8.25574 3.34973 8.38689 3.4918C8.52897 3.62295 8.60001 3.79235 8.60001 4C8.60001 4.20765 8.52897 4.38251 8.38689 4.52459C8.25574 4.65574 8.08635 4.72131 7.87869 4.72131H5.32132V7.2623C5.32132 7.46995 5.25028 7.64481 5.1082 7.78689C4.97706 7.92896 4.80766 8 4.60001 8C4.39236 8 4.21749 7.92896 4.07542 7.78689C3.94427 7.64481 3.87869 7.46995 3.87869 7.2623V4.72131H1.32132C1.11367 4.72131 0.938804 4.65574 0.796727 4.52459C0.66558 4.38251 0.600006 4.20765 0.600006 4C0.600006 3.79235 0.66558 3.62295 0.796727 3.4918C0.938804 3.34973 1.11367 3.27869 1.32132 3.27869H3.87869V0.721311C3.87869 0.513662 3.94427 0.344263 4.07542 0.213115C4.21749 0.0710383 4.39236 0 4.60001 0C4.80766 0 4.97706 0.0710383 5.1082 0.213115C5.25028 0.344263 5.32132 0.513662 5.32132 0.721311V3.27869H7.87869Z" fill="currentColor"/>
</svg>
