<svg width="21" height="20" viewBox="0 0 21 20" fill="none" xmlns="http://www.w3.org/2000/svg">
<path d="M10.3334 0C4.81059 0 0.333374 4.47721 0.333374 10C0.333374 15.5228 4.81059 20 10.3334 20C15.8562 20 20.3334 15.5228 20.3334 10C20.3272 4.47982 15.8536 0.00618492 10.3334 0ZM10.3334 19.3333C5.17875 19.3333 1.00004 15.1546 1.00004 10C1.00004 4.84538 5.17875 0.666667 10.3334 0.666667C15.488 0.666667 19.6667 4.84538 19.6667 10C19.6608 15.1522 15.4856 19.3275 10.3334 19.3333Z" fill="currentColor"/>
<path d="M14.7157 11.2194L11.8864 10.7194C11.7432 10.6942 11.6003 10.7645 11.5331 10.8934L10.847 12.208C9.63318 11.6704 8.66313 10.6999 8.12602 9.4857L9.43933 8.79966C9.56824 8.73244 9.63855 8.58954 9.61332 8.44631L9.11332 5.61736C9.0977 5.52833 9.04659 5.44956 8.97172 5.39894C8.25639 4.91652 7.33321 4.86801 6.57133 5.27296C5.80945 5.67807 5.33337 6.47056 5.33337 7.33335C5.33809 11.5656 8.76778 14.9953 13 15C13.863 14.9999 14.6555 14.5235 15.0604 13.7614C15.4652 12.9992 15.4164 12.0759 14.9333 11.3607C14.8829 11.2862 14.8044 11.235 14.7157 11.2194ZM13 14.3334C9.13595 14.329 6.00444 11.1975 6.00004 7.33335C5.99988 6.74123 6.31401 6.19354 6.82507 5.89438C7.33614 5.59539 7.96765 5.59002 8.48376 5.88039L8.91475 8.32228L7.54806 9.03566C7.39832 9.11379 7.33061 9.29136 7.39034 9.4494C7.99972 11.0614 9.27185 12.3343 10.8837 12.9444C11.0417 13.0041 11.2193 12.9364 11.2974 12.7866L12.0111 11.4199L14.453 11.8511C14.7427 12.367 14.7369 12.9979 14.438 13.5087C14.139 14.0192 13.5918 14.3332 13 14.3334Z" fill="currentColor"/>
</svg>
