<svg width="25" height="25" viewBox="0 0 25 25" fill="none" xmlns="http://www.w3.org/2000/svg">
<path d="M15 5H9V11.875H7V13.125H9V15H7V16.25H9V20H10.3333V16.25H16.3333V15H10.3333V13.125H15C16.0605 13.1238 17.0772 12.7284 17.8271 12.0254C18.5769 11.3224 18.9988 10.3692 19 9.375V8.75C18.9988 7.75579 18.5769 6.80264 17.8271 6.09963C17.0772 5.39662 16.0605 5.00116 15 5ZM17.6667 9.375C17.6658 10.0378 17.3846 10.6732 16.8846 11.1419C16.3847 11.6105 15.707 11.8742 15 11.875H10.3333V6.25H15C15.707 6.25083 16.3847 6.51448 16.8846 6.98315C17.3846 7.45181 17.6658 8.08721 17.6667 8.75V9.375Z" fill="currentColor"/>
<rect x="0.5" y="0.5" width="24" height="24" rx="12" stroke="currentColor"/>
</svg>
