<svg width="20" height="21" viewBox="0 0 20 21" fill="none" xmlns="http://www.w3.org/2000/svg">
<path d="M9.92175 5.5C12.6357 5.5 14.8436 7.70795 14.8436 10.4219C14.8436 11.6159 14.4163 12.7119 13.7065 13.5651L16.8615 16.6987C17.0451 16.8811 17.0461 17.1779 16.8637 17.3616C16.7721 17.4538 16.6516 17.5 16.5311 17.5C16.4117 17.5 16.2923 17.4546 16.2008 17.3638L13.0415 14.226C12.1917 14.9242 11.1048 15.3438 9.92175 15.3438C9.07739 15.3438 8.24419 15.1262 7.51228 14.7145C7.28663 14.5877 7.20659 14.3019 7.3335 14.0762C7.46039 13.8506 7.74619 13.7705 7.97185 13.8974C8.56374 14.2303 9.23801 14.4062 9.92175 14.4062C12.1187 14.4062 13.9061 12.6189 13.9061 10.4219C13.9061 8.22489 12.1187 6.4375 9.92175 6.4375C7.72477 6.4375 5.93738 8.22489 5.93738 10.4219C5.93738 11.114 6.11745 11.7955 6.45809 12.3928C6.58636 12.6176 6.50803 12.9039 6.28317 13.0322C6.05829 13.1604 5.77203 13.0821 5.64375 12.8573C5.22253 12.1187 4.99988 11.2766 4.99988 10.4219C4.99988 7.70795 7.20783 5.5 9.92175 5.5Z" fill="currentColor"/>
<circle cx="9.99988" cy="10.5" r="9.5" stroke="currentColor"/>
</svg>
