<svg width="25" height="25" viewBox="0 0 25 25" fill="none" xmlns="http://www.w3.org/2000/svg">
<path d="M11.5347 2.74271C11.868 1.86354 13.1295 1.86354 13.4639 2.74271L15.6201 8.71562C15.7712 9.11146 16.1555 9.375 16.5847 9.375H21.8837C22.8628 9.375 23.2899 10.5937 22.5201 11.1906L18.7493 14.5833C18.5804 14.7132 18.4569 14.8932 18.3967 15.0976C18.3364 15.3019 18.3424 15.5201 18.4139 15.7208L19.791 21.5573C20.1264 22.4948 19.041 23.3 18.2201 22.7229L13.0982 19.4729C12.9228 19.3496 12.7137 19.2835 12.4993 19.2835C12.2849 19.2835 12.0757 19.3496 11.9003 19.4729L6.77845 22.7229C5.95866 23.3 4.8722 22.4937 5.20762 21.5573L6.5847 15.7208C6.65614 15.5201 6.66216 15.3019 6.6019 15.0976C6.54164 14.8932 6.4182 14.7132 6.24929 14.5833L2.47845 11.1906C1.70762 10.5937 2.13679 9.375 3.11387 9.375H8.41283C8.62146 9.37569 8.8254 9.31302 8.99764 9.19528C9.16988 9.07754 9.30231 8.91028 9.37741 8.71562L11.5337 2.74271H11.5347Z" stroke="currentColor" stroke-width="2.08333" stroke-linecap="round" stroke-linejoin="round"/>
</svg>
