<svg width="20" height="20" viewBox="0 0 20 20" fill="none" xmlns="http://www.w3.org/2000/svg">
<path d="M19.5605 9.56329C19.5594 4.28054 15.276 -0.00107173 9.99306 -3.6149e-06C4.71031 0.0010645 0.428696 4.28466 0.429764 9.56741C0.43068 13.7286 3.12157 17.4118 7.08565 18.6775C7.12349 18.6894 7.16286 18.6955 7.20238 18.6954C7.27776 18.6952 7.35161 18.6751 7.41646 18.6368C7.50084 18.5869 7.56386 18.5075 7.59346 18.414L10.0091 10.7577C10.6695 10.7544 11.202 10.2162 11.1985 9.55597C11.1951 8.89557 10.6571 8.36303 9.99672 8.36639C9.81911 8.36715 9.64378 8.40805 9.48418 8.48602L6.29295 5.29434C6.13457 5.14145 5.88234 5.14587 5.72945 5.3041C5.58022 5.45868 5.58022 5.70343 5.72945 5.858L8.91899 9.0512C8.67424 9.55078 8.81416 10.1538 9.25423 10.4944L6.95259 17.7899C2.40395 16.1143 0.0748445 11.0687 1.75041 6.52008C3.42598 1.97143 8.4716 -0.35767 13.0202 1.3179C17.5689 2.99347 19.898 8.03924 18.2224 12.5877C17.4038 14.81 15.7218 16.6072 13.5586 17.5711L13.3099 16.3997C13.2644 16.1844 13.0527 16.0467 12.8374 16.0924C12.7695 16.1069 12.7065 16.1388 12.6546 16.185L10.2566 18.326C10.0921 18.4723 10.0774 18.7242 10.2239 18.8887C10.2715 18.9421 10.3326 18.9818 10.4009 19.0036L13.4626 19.9808C13.6721 20.0481 13.8966 19.9329 13.9639 19.7232C13.9852 19.657 13.9887 19.5865 13.9744 19.5184L13.7299 18.369C17.2701 16.8765 19.5687 13.4051 19.5605 9.56329ZM9.99519 9.16473C10.2152 9.16473 10.3938 9.34326 10.3938 9.56329C10.3938 9.78347 10.2152 9.96185 9.99519 9.96185C9.77501 9.96185 9.59663 9.78347 9.59663 9.56329C9.59663 9.34326 9.77501 9.16473 9.99519 9.16473ZM11.3079 18.4547L12.673 17.2371L13.0497 19.0123L11.3079 18.4547Z" fill="currentColor"/>
<path d="M9.59656 1.99065V2.78777C9.59656 3.00795 9.77493 3.18633 9.99512 3.18633C10.2151 3.18633 10.3937 3.00795 10.3937 2.78777V1.99065C10.3937 1.77062 10.2151 1.59209 9.99512 1.59209C9.77493 1.59209 9.59656 1.77062 9.59656 1.99065Z" fill="currentColor"/>
<path d="M2.42256 9.16472C2.20238 9.16472 2.024 9.34324 2.024 9.56328C2.024 9.78346 2.20238 9.96184 2.42256 9.96184H3.21968C3.43987 9.96184 3.61824 9.78346 3.61824 9.56328C3.61824 9.34324 3.43987 9.16472 3.21968 9.16472H2.42256Z" fill="currentColor"/>
<path d="M17.5675 9.96184C17.7877 9.96184 17.9661 9.78346 17.9661 9.56328C17.9661 9.34324 17.7877 9.16472 17.5675 9.16472H16.7704C16.5504 9.16472 16.3719 9.34324 16.3719 9.56328C16.3719 9.78346 16.5504 9.96184 16.7704 9.96184H17.5675Z" fill="currentColor"/>
</svg>
