<svg width="20" height="20" viewBox="0 0 20 20" fill="none" xmlns="http://www.w3.org/2000/svg">
<path d="M10.0604 13.5C11.507 13.5 10.9912 12.6208 11.1028 12.368C11.1012 12.1792 11.0995 11.9976 11.1062 11.8872C11.1978 11.912 11.4141 12.0172 11.8608 12.434C12.5503 13.102 12.7266 13.5 13.2837 13.5H14.3091C14.6341 13.5 14.8032 13.3708 14.8878 13.2624C14.9695 13.1576 15.0495 12.9736 14.962 12.6872C14.7332 11.9976 13.3991 10.8068 13.3162 10.6812C13.3287 10.658 13.3487 10.6272 13.3591 10.6112H13.3582C13.6216 10.2772 14.6266 8.8316 14.7745 8.2532C14.7749 8.2524 14.7753 8.2512 14.7753 8.25C14.8553 7.986 14.782 7.8148 14.7061 7.718C14.592 7.5732 14.4103 7.5 14.1649 7.5H13.1395C12.7962 7.5 12.5358 7.666 12.4041 7.9688C12.1837 8.5068 11.5645 9.6132 11.1003 10.0048C11.0862 9.45 11.0958 9.0264 11.1033 8.7116C11.1183 8.0976 11.1666 7.5 10.5029 7.5H8.89121C8.47538 7.5 8.07747 7.936 8.50829 8.4536C8.88496 8.9072 8.64371 9.16 8.72496 10.4184C8.4083 10.0924 7.84497 9.212 7.44664 8.0868C7.33497 7.7824 7.16581 7.5004 6.68956 7.5004H5.66416C5.24833 7.5004 5 7.718 5 8.0824C5 8.9008 6.88706 13.5 10.0604 13.5ZM6.68956 8.1004C6.77998 8.1004 6.78915 8.1004 6.85623 8.2832C7.26414 9.4364 8.17913 11.1428 8.84746 11.1428C9.34954 11.1428 9.34954 10.6488 9.34954 10.4628L9.34912 8.982C9.32162 8.492 9.13579 8.248 9.01371 8.1L10.4754 8.1016C10.4762 8.1084 10.467 9.7396 10.4795 10.1348C10.4795 10.696 10.9437 11.0176 11.6683 10.3136C12.4328 9.4852 12.9616 8.2468 12.9828 8.1964C13.0141 8.1244 13.0412 8.1 13.1395 8.1H14.1649H14.1691C14.1686 8.1012 14.1686 8.1024 14.1682 8.1036C14.0745 8.5236 13.1491 9.862 12.8395 10.2776C12.8345 10.284 12.8299 10.2908 12.8253 10.2976C12.6891 10.5112 12.5783 10.7472 12.8441 11.0792H12.8445C12.8687 11.1072 12.9316 11.1728 13.0232 11.264C13.3082 11.5464 14.2857 12.512 14.3724 12.896C14.3149 12.9048 14.2524 12.8984 13.2837 12.9004C13.0774 12.9004 12.9162 12.6044 12.3008 12.0084C11.7474 11.4916 11.3883 11.2804 11.0612 11.2804C10.4262 11.2804 10.4724 11.7752 10.4783 12.3736C10.4804 13.0224 10.4762 12.8172 10.4808 12.858C10.4437 12.872 10.3374 12.9 10.0604 12.9C7.41664 12.9 5.69499 8.8716 5.62874 8.1016C5.65166 8.0996 5.96707 8.1008 6.68956 8.1004Z" fill="currentColor"/>
<path d="M10 0C4.47721 0 0 4.47721 0 10C0 15.5228 4.47721 20 10 20C15.5228 20 20 15.5228 20 10C19.9938 4.47982 15.5202 0.00618492 10 0ZM10 19.3333C4.84538 19.3333 0.666667 15.1546 0.666667 10C0.666667 4.84538 4.84538 0.666667 10 0.666667C15.1546 0.666667 19.3333 4.84538 19.3333 10C19.3275 15.1522 15.1522 19.3275 10 19.3333Z" fill="currentColor"/>
</svg>
