<svg width="20" height="20" viewBox="0 0 20 20" fill="none" xmlns="http://www.w3.org/2000/svg">
<path d="M10 0C4.47721 0 0 4.47721 0 10C0 15.5228 4.47721 20 10 20C15.5228 20 20 15.5228 20 10C19.9938 4.47982 15.5202 0.00618492 10 0ZM10 19.3333C4.84538 19.3333 0.666667 15.1546 0.666667 10C0.666667 4.84538 4.84538 0.666667 10 0.666667C15.1546 0.666667 19.3333 4.84538 19.3333 10C19.3275 15.1522 15.1522 19.3275 10 19.3333Z" fill="currentColor"/>
<path d="M14.3333 5.33333H5.66667C4.74658 5.33447 4.00114 6.07992 4 7V13C4.00114 13.9201 4.74658 14.6655 5.66667 14.6667H14.3333C15.2534 14.6655 15.9989 13.9201 16 13V7C15.9989 6.07992 15.2534 5.33447 14.3333 5.33333ZM15.3333 13C15.3333 13.5522 14.8856 14 14.3333 14H5.66667C5.11442 14 4.66667 13.5522 4.66667 13V7C4.66667 6.44775 5.11442 6 5.66667 6H14.3333C14.8856 6 15.3333 6.44775 15.3333 7V13Z" fill="currentColor"/>
<path d="M12.5763 9.07126L8.37126 7.38929C8.06315 7.26608 7.71403 7.30368 7.43929 7.48988C7.16455 7.67591 7 7.98614 7 8.31801V11.6819C7 12.0138 7.16455 12.324 7.43929 12.5101C7.71403 12.6963 8.06315 12.7339 8.37126 12.6107L12.5763 10.9287C12.9562 10.7768 13.2054 10.409 13.2054 9.99998C13.2054 9.59096 12.9562 9.22312 12.5763 9.07126ZM12.3286 10.3094L8.1237 11.9914C8.021 12.0324 7.90462 12.0198 7.81315 11.9578C7.72168 11.8958 7.66667 11.7925 7.66667 11.6819V8.31801C7.66667 8.13392 7.81592 7.98467 8 7.98467C8.04281 7.98467 8.08512 7.99297 8.12467 8.00892L12.3296 9.69106C12.4561 9.74168 12.5387 9.86423 12.5387 10.0003C12.5387 10.1365 12.4561 10.2589 12.3296 10.3097L12.3286 10.3094Z" fill="currentColor"/>
</svg>
