<svg width="0" height="0" class="hidden">
  <symbol fill="none" xmlns="http://www.w3.org/2000/svg" viewBox="0 0 30 31" id="ic_cart">
    <path d="M23.3959 11.6109C23.2929 11.4802 23.1271 11.3993 22.947 11.3925L11.7814 10.9664C11.461 10.954 11.1933 11.173 11.1796 11.4553C11.166 11.7375 11.4129 11.976 11.7318 11.9881L22.1414 12.3855L20.0946 18.0399H10.9863L9.34079 10.1064C9.30462 9.93257 9.16979 9.78751 8.98385 9.72292L6.28872 8.78541C5.99168 8.68244 5.6565 8.81163 5.53984 9.07432C5.42339 9.33715 5.56925 9.63411 5.86613 9.7374L8.26253 10.571L9.93712 18.6437C9.98759 18.8863 10.2265 19.0626 10.5053 19.0626H10.783L10.1487 20.6227C10.0956 20.7534 10.1175 20.8985 10.2079 21.012C10.2981 21.1256 10.4448 21.1931 10.6015 21.1931H11.0464C10.7707 21.4648 10.6015 21.8225 10.6015 22.2159C10.6015 23.0618 11.3789 23.75 12.3341 23.75C13.2893 23.75 14.0667 23.0618 14.0667 22.2159C14.0667 21.8226 13.8975 21.4648 13.6218 21.1931H17.3993C17.1235 21.4648 16.9543 21.8225 16.9543 22.2159C16.9543 23.0618 17.7315 23.75 18.6869 23.75C19.6424 23.75 20.4195 23.0618 20.4195 22.2159C20.4195 21.8226 20.2503 21.4648 19.9747 21.1931H20.5158C20.7817 21.1931 20.9971 21.0024 20.9971 20.767C20.9971 20.5316 20.7816 20.3409 20.5158 20.3409H11.2863L11.806 19.0625H20.5158C20.7669 19.0625 20.9891 18.9188 21.0656 18.7072L23.472 12.0594C23.5273 11.9076 23.4989 11.7417 23.3959 11.6109ZM12.3341 22.8979C11.9094 22.8979 11.5641 22.5921 11.5641 22.2161C11.5641 21.84 11.9094 21.5342 12.3341 21.5342C12.7588 21.5342 13.1042 21.84 13.1042 22.2161C13.1042 22.5921 12.7588 22.8979 12.3341 22.8979ZM18.6869 22.8979C18.2622 22.8979 17.9169 22.5921 17.9169 22.2161C17.9169 21.84 18.2622 21.5342 18.6869 21.5342C19.1116 21.5342 19.4569 21.84 19.4569 22.2161C19.4569 22.5921 19.1116 22.8979 18.6869 22.8979Z" fill="currentColor"></path>
    <circle cx="15" cy="15.5" r="14.5" stroke="currentColor"></circle>
  </symbol>
  <symbol fill="none" xmlns="http://www.w3.org/2000/svg" viewBox="0 0 24 20" id="ic_compare">
    <path d="M1.55237 15.5959C9.4904 15.5958 9.55877 4.70578 19.4129 4.70582" stroke="currentColor" stroke-width="2.5" stroke-linecap="square"></path>
    <path d="M23.6552 4.63835L18.5228 8.65528L18.5228 0.621421L23.6552 4.63835Z" fill="currentColor"></path>
    <path d="M1.55237 4.40415C9.4904 4.40419 9.55877 15.2942 19.4129 15.2942" stroke="currentColor" stroke-width="2.5" stroke-linecap="square"></path>
    <path d="M23.6552 15.3616L18.5228 11.3447L18.5228 19.3786L23.6552 15.3616Z" fill="currentColor"></path>
  </symbol>
  <symbol fill="none" xmlns="http://www.w3.org/2000/svg" viewBox="0 0 32 32" id="ic_delete">
    <circle cx="16" cy="16" r="15.5" stroke="currentColor"></circle>
    <path d="M10 10L21.9255 22M22 10L10.0745 22" stroke="currentColor" stroke-linecap="round"></path>
  </symbol>
  <symbol fill="none" xmlns="http://www.w3.org/2000/svg" viewBox="0 0 25 25" id="ic_delivery">
    <path d="M5 8.49946C5 8.10178 5.14816 7.72039 5.41188 7.43918C5.6756 7.15798 6.03329 7 6.40625 7H14.8438C15.2167 7 15.5744 7.15798 15.8381 7.43918C16.1018 7.72039 16.25 8.10178 16.25 8.49946V9.99892H17.2063C17.4169 9.99912 17.6249 10.0498 17.8148 10.1472C18.0046 10.2446 18.1715 10.3863 18.3031 10.5617L19.6916 12.4111C19.8913 12.6771 20.0001 13.0079 20 13.3487V15.4969C20 15.8946 19.8518 16.276 19.5881 16.5572C19.3244 16.8384 18.9667 16.9964 18.5938 16.9964H18.125C18.125 17.5266 17.9275 18.0352 17.5758 18.4101C17.2242 18.785 16.7473 18.9957 16.25 18.9957C15.7527 18.9957 15.2758 18.785 14.9242 18.4101C14.5725 18.0352 14.375 17.5266 14.375 16.9964H9.6875C9.68804 17.2629 9.63861 17.5268 9.54211 17.7726C9.44562 18.0185 9.30401 18.2412 9.12561 18.4279C8.94721 18.6145 8.73561 18.7612 8.50327 18.8594C8.27092 18.9576 8.02252 19.0052 7.77265 18.9995C7.52278 18.9939 7.2765 18.935 7.04828 18.8264C6.82006 18.7178 6.6145 18.5616 6.4437 18.3671C6.2729 18.1725 6.1403 17.9435 6.05369 17.6936C5.96708 17.4436 5.92821 17.1777 5.93937 16.9114C5.66473 16.8084 5.42687 16.6169 5.2586 16.3636C5.09034 16.1102 4.99998 15.8074 5 15.4969V8.49946ZM6.21313 15.9528C6.38263 15.6569 6.62142 15.4131 6.90603 15.2454C7.19064 15.0777 7.51128 14.9918 7.83643 14.9963C8.16158 15.0007 8.48006 15.0953 8.76055 15.2707C9.04104 15.4461 9.27391 15.6963 9.43625 15.9968H14.6262C14.7912 15.6931 15.0278 15.4409 15.3125 15.265V8.49946C15.3125 8.3669 15.2631 8.23977 15.1752 8.14603C15.0873 8.0523 14.9681 7.99964 14.8438 7.99964H6.40625C6.28193 7.99964 6.1627 8.0523 6.07479 8.14603C5.98689 8.23977 5.9375 8.3669 5.9375 8.49946V15.4969C5.93743 15.5932 5.96339 15.6873 6.01228 15.7682C6.06118 15.849 6.13091 15.9131 6.21313 15.9528ZM16.25 14.9971C16.5791 14.9971 16.9024 15.0895 17.1875 15.265C17.4725 15.4405 17.7092 15.6928 17.8738 15.9968H18.5938C18.7181 15.9968 18.8373 15.9441 18.9252 15.8504C19.0131 15.7566 19.0625 15.6295 19.0625 15.4969V13.3477C19.0623 13.2343 19.0259 13.1243 18.9594 13.0358L17.5719 11.1865C17.528 11.128 17.4724 11.0807 17.4091 11.0481C17.3458 11.0156 17.2765 10.9987 17.2063 10.9986H16.25V14.9971ZM7.8125 15.9968C7.56386 15.9968 7.3254 16.1021 7.14959 16.2896C6.97377 16.477 6.875 16.7313 6.875 16.9964C6.875 17.2615 6.97377 17.5158 7.14959 17.7033C7.3254 17.8907 7.56386 17.996 7.8125 17.996C8.06114 17.996 8.2996 17.8907 8.47541 17.7033C8.65123 17.5158 8.75 17.2615 8.75 16.9964C8.75 16.7313 8.65123 16.477 8.47541 16.2896C8.2996 16.1021 8.06114 15.9968 7.8125 15.9968ZM16.25 15.9968C16.0014 15.9968 15.7629 16.1021 15.5871 16.2896C15.4113 16.477 15.3125 16.7313 15.3125 16.9964C15.3125 17.2615 15.4113 17.5158 15.5871 17.7033C15.7629 17.8907 16.0014 17.996 16.25 17.996C16.4986 17.996 16.7371 17.8907 16.9129 17.7033C17.0887 17.5158 17.1875 17.2615 17.1875 16.9964C17.1875 16.7313 17.0887 16.477 16.9129 16.2896C16.7371 16.1021 16.4986 15.9968 16.25 15.9968Z" fill="currentColor"></path>
    <rect x="0.5" y="0.5" width="24" height="24" rx="12" stroke="currentColor"></rect>
  </symbol>
  <symbol fill="none" xmlns="http://www.w3.org/2000/svg" viewBox="0 0 21 20" id="ic_email">
    <path d="M10.6667 0C5.1439 0 0.666687 4.47721 0.666687 10C0.666687 15.5228 5.1439 20 10.6667 20C16.1895 20 20.6667 15.5228 20.6667 10C20.6605 4.47982 16.1869 0.00618492 10.6667 0ZM10.6667 19.3333C5.51206 19.3333 1.33335 15.1546 1.33335 10C1.33335 4.84538 5.51206 0.666667 10.6667 0.666667C15.8213 0.666667 20 4.84538 20 10C19.9942 15.1522 15.8189 19.3275 10.6667 19.3333Z" fill="currentColor"></path>
    <path d="M15.3334 6H6.00002C5.81594 6 5.66669 6.14925 5.66669 6.33333V13.6667C5.66669 13.8507 5.81594 14 6.00002 14H15.3334C15.5174 14 15.6667 13.8507 15.6667 13.6667V6.33333C15.6667 6.14925 15.5174 6 15.3334 6ZM14.4333 6.66667L10.6667 9.89437L6.90009 6.66667H14.4333ZM6.33335 13.3333V7.05794L10.4497 10.5863C10.5744 10.693 10.7583 10.693 10.883 10.5863L15 7.05794V13.3333H6.33335Z" fill="currentColor"></path>
  </symbol>
  <symbol fill="none" xmlns="http://www.w3.org/2000/svg" viewBox="0 0 20 20" id="ic_facebook">
    <g clip-path="url(#clip0_1061_13310)">
      <path d="M12.0192 6.78748H13V5.00109H11.2176C11.0689 4.99492 9.25647 4.96035 8.7867 6.74757C8.77989 6.76629 8.62976 7.19134 8.62976 8.18421L7 8.18915V10.0628L8.63183 10.058V15H11.1244V10.0624H12.7742V8.1838H11.1244V7.59273C11.1244 7.22529 11.2797 6.78748 12.0192 6.78748ZM12.3617 8.59507V9.65069H10.712V14.5883H9.04427V9.64534L7.41244 9.65007V8.59939L9.0486 8.59466L9.04427 8.38542C9.02282 7.33371 9.17316 6.89138 9.17996 6.87019C9.58539 5.33088 11.1335 5.40824 11.1999 5.41235L12.5876 5.41276V6.37622H12.0192C11.0555 6.37622 10.7122 7.00453 10.7122 7.59252V8.59507H12.3617Z" fill="currentColor"></path>
      <path d="M10 0C4.47721 0 0 4.47721 0 10C0 15.5228 4.47721 20 10 20C15.5228 20 20 15.5228 20 10C19.9938 4.47982 15.5202 0.00618492 10 0ZM10 19.3333C4.84538 19.3333 0.666667 15.1546 0.666667 10C0.666667 4.84538 4.84538 0.666667 10 0.666667C15.1546 0.666667 19.3333 4.84538 19.3333 10C19.3275 15.1522 15.1522 19.3275 10 19.3333Z" fill="currentColor"></path>
    </g>
    <defs>
      <clipPath id="clip0_1061_13310">
        <rect width="20" height="20" fill="white"></rect>
      </clipPath>
    </defs>
  </symbol>
  <symbol fill="none" xmlns="http://www.w3.org/2000/svg" viewBox="0 0 20 20" id="ic_fixed_panel1">
    <g clip-path="url(#clip0_1128_7420)">
      <path d="M17.7764 6.00332C17.7762 6.85564 17.6281 7.70117 17.3391 8.50056C17.0475 9.31322 16.6315 9.73524 16.0902 10.2889C15.3812 11.016 14.5391 11.5932 13.6121 11.9875C12.6999 12.3702 10.4579 12.5621 9.10081 12.5621H8.07785V15.647H1.32117V0H9.21334C10.3949 0 12.5005 0.104633 13.312 0.313027C14.0763 0.500768 14.8045 0.818191 15.4662 1.25211C16.1936 1.72991 16.7857 2.3947 17.1831 3.17997C17.5786 3.96647 17.7764 4.90758 17.7764 6.00332ZM8.07955 3.55055V8.97316C8.89537 8.97316 8.97124 8.96618 9.50659 8.90689C10.0624 8.84585 10.6054 8.67757 10.8364 8.47092C11.1365 8.20961 11.3675 7.87528 11.5082 7.4987C11.6557 7.05369 11.7252 6.58554 11.7136 6.1158C11.7252 5.61928 11.5753 5.13288 11.2874 4.7329C11.0385 4.37404 10.6962 4.09372 10.2994 3.92374C9.83449 3.72759 9.34044 3.61349 8.83825 3.5863" fill="#0061AA"></path>
      <path d="M19.5122 16.998H0V18.4995H19.5122V16.998Z" fill="#FD810D"></path>
    </g>
    <defs>
      <clipPath id="clip0_1128_7420">
        <rect width="20" height="20" fill="white"></rect>
      </clipPath>
    </defs>
  </symbol>
  <symbol fill="none" xmlns="http://www.w3.org/2000/svg" viewBox="0 0 21 20" id="ic_fixed_panel2">
    <path d="M16.4281 12.1073L16.499 12.0368C16.9671 12.508 16.9672 13.2742 16.4991 13.7454C16.0295 14.2182 15.269 14.2182 14.7994 13.7455L12.1783 11.1072C11.0232 11.6134 9.59748 11.4114 8.61898 10.4265C7.36509 9.16437 7.36509 7.11123 8.61898 5.84909M16.4281 12.1073L8.68993 5.91957M16.4281 12.1073L16.499 12.0368L13.8627 9.38317M16.4281 12.1073L13.8627 9.38317M8.61898 5.84909L8.68993 5.91957M8.61898 5.84909C8.61898 5.84909 8.61898 5.84909 8.61898 5.84909L8.68993 5.91957M8.61898 5.84909C9.87624 4.58355 11.9115 4.58372 13.1686 5.84909C14.1165 6.80326 14.3473 8.20897 13.8627 9.38317M8.68993 5.91957C9.90808 4.69339 11.8796 4.69356 13.0976 5.91957C14.0325 6.86058 14.2479 8.2555 13.7444 9.40594L13.8153 9.33546L13.8627 9.38317M12.5294 9.78524L12.6003 9.85572L12.5294 9.78524C11.6253 10.6953 10.1623 10.6954 9.25812 9.78525L9.18718 9.85572L9.25812 9.78524C8.35578 8.87698 8.35578 7.39864 9.25812 6.49036C10.1622 5.58033 11.6252 5.58018 12.5294 6.49036C13.4317 7.39864 13.4317 8.87698 12.5294 9.78524ZM15.4386 13.1042L15.4386 13.1042L12.9652 10.6146C13.1177 10.4851 13.2577 10.3422 13.3844 10.1863L15.8599 12.6781C15.9765 12.7954 15.9765 12.9869 15.8599 13.1042C15.7434 13.2216 15.5551 13.2216 15.4386 13.1042Z" fill="currentColor" stroke="currentColor" stroke-width="0.2"></path>
    <path d="M5.10158 9.33984H6.60076C6.85074 9.33984 7.05233 9.13606 7.05233 8.88604C7.05233 8.63601 6.85074 8.43223 6.60076 8.43223H5.10158C4.85159 8.43223 4.65 8.63601 4.65 8.88604C4.65 9.13606 4.85159 9.33984 5.10158 9.33984Z" fill="currentColor" stroke="currentColor" stroke-width="0.2"></path>
    <path d="M5.10158 10.8496H7.16295C7.41294 10.8496 7.61453 10.6458 7.61453 10.3958C7.61453 10.1458 7.41294 9.94199 7.16295 9.94199H5.10158C4.85159 9.94199 4.65 10.1458 4.65 10.3958C4.65 10.6458 4.85159 10.8496 5.10158 10.8496Z" fill="currentColor" stroke="currentColor" stroke-width="0.2"></path>
    <path d="M5.10158 12.3584H8.66215C8.91214 12.3584 9.11373 12.1546 9.11373 11.9046C9.11373 11.6546 8.91214 11.4508 8.66215 11.4508H5.10158C4.85159 11.4508 4.65 11.6546 4.65 11.9046C4.65 12.1546 4.85159 12.3584 5.10158 12.3584Z" fill="currentColor" stroke="currentColor" stroke-width="0.2"></path>
    <path d="M12.785 12.9605H5.10158C4.85159 12.9605 4.65 13.1643 4.65 13.4144C4.65 13.6644 4.85159 13.8682 5.10158 13.8682H12.785C13.0349 13.8682 13.2365 13.6644 13.2365 13.4144C13.2365 13.1643 13.0349 12.9605 12.785 12.9605Z" fill="currentColor" stroke="currentColor" stroke-width="0.2"></path>
    <circle cx="10.75" cy="10" r="9.5" stroke="currentColor"></circle>
  </symbol>
  <symbol fill="none" xmlns="http://www.w3.org/2000/svg" viewBox="0 0 21 20" id="ic_fixed_panel3">
    <rect x="6.475" y="5.975" width="3.05" height="3.05" rx="0.525" stroke="currentColor" stroke-width="0.95" stroke-linejoin="round"></rect>
    <rect x="6.475" y="10.975" width="3.05" height="3.05" rx="0.525" stroke="currentColor" stroke-width="0.95" stroke-linejoin="round"></rect>
    <rect x="11.475" y="5.975" width="3.05" height="3.05" rx="0.525" stroke="currentColor" stroke-width="0.95" stroke-linejoin="round"></rect>
    <rect x="11.475" y="10.975" width="3.05" height="3.05" rx="0.525" stroke="currentColor" stroke-width="0.95" stroke-linejoin="round"></rect>
    <circle cx="10.5" cy="10" r="9.5" stroke="currentColor"></circle>
  </symbol>
  <symbol fill="none" xmlns="http://www.w3.org/2000/svg" viewBox="0 0 21 20" id="ic_fixed_panel4">
    <path d="M15.9062 7.36086L15.9062 7.36087C15.9902 7.46759 16.0146 7.60523 15.9685 7.73177L15.9062 7.36086ZM15.9062 7.36086C15.8227 7.25493 15.6909 7.19204 15.5508 7.18674C15.5508 7.18674 15.5508 7.18674 15.5508 7.18674L8.10716 6.90264L15.9062 7.36086ZM7.62816 7.29992L7.62816 7.2999C7.63967 7.06263 7.86091 6.89312 8.10711 6.90264L7.62816 7.29992ZM7.62816 7.29992C7.61667 7.53811 7.82296 7.72437 8.06832 7.7337M7.62816 7.29992L8.06832 7.7337M7.32723 12.4501H7.2535C7.03839 12.4501 6.84341 12.3134 6.80132 12.111L6.80131 12.111L5.69355 6.77085L4.13611 6.2291L4.1361 6.2291C3.90355 6.14819 3.77647 5.90742 3.87466 5.68583L3.87468 5.68577C3.97051 5.46999 4.23764 5.37322 4.46705 5.45275L4.46712 5.45277L6.26385 6.07777L6.26388 6.07778L6.23923 6.14861L7.32723 12.4501ZM7.32723 12.4501L6.94634 13.3869L6.94633 13.3869C6.90043 13.4999 6.91997 13.6251 6.99652 13.7213L7.32723 12.4501ZM8.06832 7.7337L14.9055 7.99467L13.5938 11.6183H7.63527L8.06832 7.7337ZM14.3643 12.1636L15.9685 7.73191L6.99655 13.7214C7.07218 13.8165 7.19246 13.8704 7.31766 13.8704H7.4493C7.31965 14.0434 7.24266 14.2517 7.24266 14.4773C7.24266 15.091 7.80334 15.575 8.47272 15.575C9.1421 15.575 9.70279 15.091 9.70279 14.4773C9.70279 14.2517 9.62579 14.0434 9.49616 13.8704H11.6845C11.5549 14.0434 11.4779 14.2517 11.4779 14.4773C11.4779 15.091 12.0384 15.575 12.7079 15.575C13.3775 15.575 13.938 15.091 13.938 14.4773C13.938 14.2517 13.861 14.0434 13.7314 13.8704H13.9272C14.137 13.8704 14.3231 13.718 14.3231 13.5114C14.3231 13.3047 14.137 13.1523 13.9272 13.1523H7.88564L8.17113 12.45H13.9272C14.1214 12.45 14.301 12.3387 14.3643 12.1637C14.3643 12.1637 14.3643 12.1637 14.3643 12.1636ZM8.47275 14.8569C8.2222 14.8569 8.03437 14.6783 8.03437 14.4774C8.03437 14.2764 8.22221 14.0978 8.47275 14.0978C8.72329 14.0978 8.9111 14.2764 8.9111 14.4774C8.9111 14.6783 8.72329 14.8569 8.47275 14.8569ZM12.7079 14.8569C12.4574 14.8569 12.2696 14.6783 12.2696 14.4774C12.2696 14.2764 12.4574 14.0978 12.7079 14.0978C12.9585 14.0978 13.1463 14.2764 13.1463 14.4774C13.1463 14.6783 12.9585 14.8569 12.7079 14.8569Z" fill="currentColor" stroke="currentColor" stroke-width="0.15"></path>
    <circle cx="10.25" cy="10" r="9.5" stroke="currentColor"></circle>
  </symbol>
  <symbol fill="none" xmlns="http://www.w3.org/2000/svg" viewBox="0 0 20 20" id="ic_fixed_panel5">
    <mask id="path-1-outside-1_1128_7453" maskUnits="userSpaceOnUse" x="-0.799805" y="-0.799805" width="21" height="21" fill="black">
      <rect fill="white" x="-0.799805" y="-0.799805" width="21" height="21"></rect>
      <path d="M10.0002 0.200195C4.59648 0.200195 0.200195 4.59648 0.200195 10.0002C0.200195 12.3669 1.04365 14.5402 2.4457 16.2356C2.4493 16.2405 2.44962 16.2467 2.45354 16.2513C3.46588 17.472 4.73727 18.4079 6.15402 19.0126C6.17036 19.0195 6.18636 19.027 6.2027 19.0338C6.31736 19.0822 6.43332 19.1269 6.54962 19.1707C6.59535 19.188 6.64108 19.2057 6.68747 19.2223C6.78776 19.2583 6.8887 19.2922 6.99029 19.3249C7.0553 19.3458 7.1203 19.3664 7.18596 19.386C7.2758 19.4128 7.36596 19.4386 7.45677 19.4631C7.53648 19.4846 7.61684 19.5046 7.6972 19.5238C7.77854 19.5434 7.8602 19.563 7.9422 19.5803C8.03366 19.5999 8.12611 19.6173 8.21888 19.6343C8.29336 19.648 8.36752 19.6623 8.44265 19.6744C8.54555 19.6911 8.6491 19.7042 8.75298 19.7176C8.81995 19.726 8.88659 19.7358 8.95388 19.743C9.07148 19.7554 9.19006 19.7643 9.30897 19.7724C9.36418 19.7764 9.41906 19.7822 9.47459 19.7852C9.64805 19.795 9.82347 19.8002 10.0002 19.8002C10.1769 19.8002 10.3523 19.795 10.5265 19.7858C10.582 19.7829 10.6369 19.777 10.6921 19.7731C10.811 19.7646 10.9296 19.7561 11.0472 19.7437C11.1145 19.7365 11.1811 19.7267 11.2481 19.7182C11.3519 19.7048 11.4555 19.6917 11.5584 19.6751C11.6332 19.663 11.7077 19.6486 11.7822 19.6349C11.8746 19.6179 11.9671 19.6006 12.0588 19.581C12.1408 19.5634 12.2222 19.5441 12.3038 19.5245C12.3842 19.5049 12.4646 19.485 12.5443 19.4637C12.6351 19.4396 12.7252 19.4134 12.8151 19.3866C12.8807 19.367 12.9457 19.3465 13.0108 19.3256C13.1123 19.2929 13.2133 19.2589 13.3136 19.223C13.3596 19.2063 13.4054 19.1887 13.4514 19.1714C13.568 19.1276 13.6837 19.0825 13.7983 19.0345C13.8147 19.0276 13.8307 19.0201 13.847 19.0133C15.2634 18.4086 16.5352 17.4727 17.5475 16.2519C17.5514 16.2474 17.5517 16.2408 17.5553 16.2363C18.9567 14.5402 19.8002 12.3669 19.8002 10.0002C19.8002 4.59648 15.4039 0.200195 10.0002 0.200195ZM13.9715 18.2387C13.9666 18.241 13.962 18.2436 13.9571 18.2459C13.8405 18.3021 13.7219 18.355 13.6023 18.4066C13.5752 18.4181 13.5484 18.4298 13.5213 18.4413C13.4168 18.485 13.311 18.5265 13.2045 18.5664C13.16 18.583 13.1156 18.5994 13.0709 18.615C12.9765 18.6487 12.8817 18.681 12.786 18.7117C12.7266 18.7307 12.6668 18.7487 12.607 18.7663C12.5221 18.7918 12.4368 18.8163 12.3506 18.8391C12.278 18.8584 12.2049 18.8761 12.1317 18.8934C12.0549 18.9117 11.9785 18.9303 11.9011 18.9466C11.8165 18.9646 11.7312 18.9799 11.6463 18.9953C11.5773 19.008 11.5087 19.0214 11.4392 19.0325C11.3434 19.0476 11.2468 19.0596 11.1504 19.0717C11.0893 19.0796 11.0285 19.0887 10.9668 19.0952C10.8567 19.107 10.7456 19.1145 10.6349 19.1224C10.5856 19.1256 10.5366 19.1312 10.4866 19.1338C10.3249 19.1423 10.1629 19.1469 10.0002 19.1469C9.83752 19.1469 9.67549 19.1423 9.51412 19.1338C9.46446 19.1312 9.41546 19.126 9.36581 19.1224C9.25474 19.1148 9.144 19.107 9.03392 19.0952C8.97218 19.0887 8.91142 19.0796 8.85033 19.0717C8.75396 19.0596 8.65727 19.0476 8.56156 19.0325C8.49198 19.0214 8.42338 19.008 8.35445 18.9953C8.26919 18.9799 8.18393 18.9643 8.09965 18.9466C8.02223 18.9303 7.94546 18.9117 7.86902 18.8934C7.79585 18.8757 7.72268 18.8584 7.65016 18.8391C7.56424 18.8163 7.47866 18.7914 7.39372 18.7663C7.33394 18.7487 7.27416 18.7307 7.21471 18.7117C7.119 18.681 7.02394 18.6487 6.92986 18.615C6.8851 18.599 6.84068 18.5827 6.79625 18.5664C6.68976 18.5265 6.58392 18.485 6.47938 18.4413C6.45227 18.4302 6.42581 18.4184 6.3987 18.407C6.27914 18.3557 6.16056 18.3024 6.04361 18.2462C6.03871 18.244 6.03414 18.2417 6.02924 18.2391C4.8895 17.6876 3.88271 16.9049 3.06572 15.9543C3.69716 13.6291 5.48468 11.7547 7.78442 11.0089C7.82982 11.0367 7.87719 11.0615 7.9239 11.0877C7.95134 11.103 7.97846 11.1194 8.00622 11.1341C8.10357 11.1857 8.20222 11.234 8.30316 11.2775C8.38058 11.3114 8.46062 11.3402 8.54032 11.3696C8.556 11.3751 8.57168 11.3813 8.58736 11.3869C9.03032 11.5437 9.50432 11.6335 10.0002 11.6335C10.4961 11.6335 10.9701 11.5437 11.4127 11.3869C11.4284 11.3813 11.4441 11.3751 11.4597 11.3696C11.5394 11.3402 11.6195 11.3114 11.6969 11.2775C11.7978 11.234 11.8965 11.1857 11.9938 11.1341C12.0216 11.119 12.0487 11.103 12.0762 11.0877C12.1229 11.0615 12.1706 11.0367 12.2163 11.0086C14.516 11.7547 16.3032 13.6291 16.935 15.954C16.118 16.9043 15.1112 17.687 13.9715 18.2387ZM6.40686 7.38686C6.40686 5.40563 8.01896 3.79353 10.0002 3.79353C11.9814 3.79353 13.5935 5.40563 13.5935 7.38686C13.5935 8.64714 12.9399 9.75618 11.955 10.3977C11.8263 10.4814 11.6923 10.5562 11.5548 10.6215C11.5385 10.6294 11.5225 10.6375 11.5061 10.645C10.5601 11.0753 9.44029 11.0753 8.49426 10.645C8.47793 10.6375 8.4616 10.6294 8.44559 10.6215C8.30774 10.5562 8.17413 10.4814 8.04542 10.3977C7.06052 9.75618 6.40686 8.64714 6.40686 7.38686ZM17.425 15.3324C16.6845 13.1457 14.9949 11.3784 12.8363 10.5389C13.6997 9.76108 14.2469 8.638 14.2469 7.38686C14.2469 5.04532 12.3417 3.1402 10.0002 3.1402C7.65865 3.1402 5.75353 5.04532 5.75353 7.38686C5.75353 8.638 6.3007 9.76108 7.1644 10.5389C5.00579 11.3787 3.31627 13.1457 2.57572 15.3324C1.49347 13.83 0.853529 11.9889 0.853529 10.0002C0.853529 4.95679 4.95679 0.853529 10.0002 0.853529C15.0436 0.853529 19.1469 4.95679 19.1469 10.0002C19.1469 11.9889 18.5069 13.83 17.425 15.3324Z"></path>
    </mask>
    <path d="M10.0002 0.200195C4.59648 0.200195 0.200195 4.59648 0.200195 10.0002C0.200195 12.3669 1.04365 14.5402 2.4457 16.2356C2.4493 16.2405 2.44962 16.2467 2.45354 16.2513C3.46588 17.472 4.73727 18.4079 6.15402 19.0126C6.17036 19.0195 6.18636 19.027 6.2027 19.0338C6.31736 19.0822 6.43332 19.1269 6.54962 19.1707C6.59535 19.188 6.64108 19.2057 6.68747 19.2223C6.78776 19.2583 6.8887 19.2922 6.99029 19.3249C7.0553 19.3458 7.1203 19.3664 7.18596 19.386C7.2758 19.4128 7.36596 19.4386 7.45677 19.4631C7.53648 19.4846 7.61684 19.5046 7.6972 19.5238C7.77854 19.5434 7.8602 19.563 7.9422 19.5803C8.03366 19.5999 8.12611 19.6173 8.21888 19.6343C8.29336 19.648 8.36752 19.6623 8.44265 19.6744C8.54555 19.6911 8.6491 19.7042 8.75298 19.7176C8.81995 19.726 8.88659 19.7358 8.95388 19.743C9.07148 19.7554 9.19006 19.7643 9.30897 19.7724C9.36418 19.7764 9.41906 19.7822 9.47459 19.7852C9.64805 19.795 9.82347 19.8002 10.0002 19.8002C10.1769 19.8002 10.3523 19.795 10.5265 19.7858C10.582 19.7829 10.6369 19.777 10.6921 19.7731C10.811 19.7646 10.9296 19.7561 11.0472 19.7437C11.1145 19.7365 11.1811 19.7267 11.2481 19.7182C11.3519 19.7048 11.4555 19.6917 11.5584 19.6751C11.6332 19.663 11.7077 19.6486 11.7822 19.6349C11.8746 19.6179 11.9671 19.6006 12.0588 19.581C12.1408 19.5634 12.2222 19.5441 12.3038 19.5245C12.3842 19.5049 12.4646 19.485 12.5443 19.4637C12.6351 19.4396 12.7252 19.4134 12.8151 19.3866C12.8807 19.367 12.9457 19.3465 13.0108 19.3256C13.1123 19.2929 13.2133 19.2589 13.3136 19.223C13.3596 19.2063 13.4054 19.1887 13.4514 19.1714C13.568 19.1276 13.6837 19.0825 13.7983 19.0345C13.8147 19.0276 13.8307 19.0201 13.847 19.0133C15.2634 18.4086 16.5352 17.4727 17.5475 16.2519C17.5514 16.2474 17.5517 16.2408 17.5553 16.2363C18.9567 14.5402 19.8002 12.3669 19.8002 10.0002C19.8002 4.59648 15.4039 0.200195 10.0002 0.200195ZM13.9715 18.2387C13.9666 18.241 13.962 18.2436 13.9571 18.2459C13.8405 18.3021 13.7219 18.355 13.6023 18.4066C13.5752 18.4181 13.5484 18.4298 13.5213 18.4413C13.4168 18.485 13.311 18.5265 13.2045 18.5664C13.16 18.583 13.1156 18.5994 13.0709 18.615C12.9765 18.6487 12.8817 18.681 12.786 18.7117C12.7266 18.7307 12.6668 18.7487 12.607 18.7663C12.5221 18.7918 12.4368 18.8163 12.3506 18.8391C12.278 18.8584 12.2049 18.8761 12.1317 18.8934C12.0549 18.9117 11.9785 18.9303 11.9011 18.9466C11.8165 18.9646 11.7312 18.9799 11.6463 18.9953C11.5773 19.008 11.5087 19.0214 11.4392 19.0325C11.3434 19.0476 11.2468 19.0596 11.1504 19.0717C11.0893 19.0796 11.0285 19.0887 10.9668 19.0952C10.8567 19.107 10.7456 19.1145 10.6349 19.1224C10.5856 19.1256 10.5366 19.1312 10.4866 19.1338C10.3249 19.1423 10.1629 19.1469 10.0002 19.1469C9.83752 19.1469 9.67549 19.1423 9.51412 19.1338C9.46446 19.1312 9.41546 19.126 9.36581 19.1224C9.25474 19.1148 9.144 19.107 9.03392 19.0952C8.97218 19.0887 8.91142 19.0796 8.85033 19.0717C8.75396 19.0596 8.65727 19.0476 8.56156 19.0325C8.49198 19.0214 8.42338 19.008 8.35445 18.9953C8.26919 18.9799 8.18393 18.9643 8.09965 18.9466C8.02223 18.9303 7.94546 18.9117 7.86902 18.8934C7.79585 18.8757 7.72268 18.8584 7.65016 18.8391C7.56424 18.8163 7.47866 18.7914 7.39372 18.7663C7.33394 18.7487 7.27416 18.7307 7.21471 18.7117C7.119 18.681 7.02394 18.6487 6.92986 18.615C6.8851 18.599 6.84068 18.5827 6.79625 18.5664C6.68976 18.5265 6.58392 18.485 6.47938 18.4413C6.45227 18.4302 6.42581 18.4184 6.3987 18.407C6.27914 18.3557 6.16056 18.3024 6.04361 18.2462C6.03871 18.244 6.03414 18.2417 6.02924 18.2391C4.8895 17.6876 3.88271 16.9049 3.06572 15.9543C3.69716 13.6291 5.48468 11.7547 7.78442 11.0089C7.82982 11.0367 7.87719 11.0615 7.9239 11.0877C7.95134 11.103 7.97846 11.1194 8.00622 11.1341C8.10357 11.1857 8.20222 11.234 8.30316 11.2775C8.38058 11.3114 8.46062 11.3402 8.54032 11.3696C8.556 11.3751 8.57168 11.3813 8.58736 11.3869C9.03032 11.5437 9.50432 11.6335 10.0002 11.6335C10.4961 11.6335 10.9701 11.5437 11.4127 11.3869C11.4284 11.3813 11.4441 11.3751 11.4597 11.3696C11.5394 11.3402 11.6195 11.3114 11.6969 11.2775C11.7978 11.234 11.8965 11.1857 11.9938 11.1341C12.0216 11.119 12.0487 11.103 12.0762 11.0877C12.1229 11.0615 12.1706 11.0367 12.2163 11.0086C14.516 11.7547 16.3032 13.6291 16.935 15.954C16.118 16.9043 15.1112 17.687 13.9715 18.2387ZM6.40686 7.38686C6.40686 5.40563 8.01896 3.79353 10.0002 3.79353C11.9814 3.79353 13.5935 5.40563 13.5935 7.38686C13.5935 8.64714 12.9399 9.75618 11.955 10.3977C11.8263 10.4814 11.6923 10.5562 11.5548 10.6215C11.5385 10.6294 11.5225 10.6375 11.5061 10.645C10.5601 11.0753 9.44029 11.0753 8.49426 10.645C8.47793 10.6375 8.4616 10.6294 8.44559 10.6215C8.30774 10.5562 8.17413 10.4814 8.04542 10.3977C7.06052 9.75618 6.40686 8.64714 6.40686 7.38686ZM17.425 15.3324C16.6845 13.1457 14.9949 11.3784 12.8363 10.5389C13.6997 9.76108 14.2469 8.638 14.2469 7.38686C14.2469 5.04532 12.3417 3.1402 10.0002 3.1402C7.65865 3.1402 5.75353 5.04532 5.75353 7.38686C5.75353 8.638 6.3007 9.76108 7.1644 10.5389C5.00579 11.3787 3.31627 13.1457 2.57572 15.3324C1.49347 13.83 0.853529 11.9889 0.853529 10.0002C0.853529 4.95679 4.95679 0.853529 10.0002 0.853529C15.0436 0.853529 19.1469 4.95679 19.1469 10.0002C19.1469 11.9889 18.5069 13.83 17.425 15.3324Z" fill="currentColor"></path>
    <path d="M10.0002 0.200195C4.59648 0.200195 0.200195 4.59648 0.200195 10.0002C0.200195 12.3669 1.04365 14.5402 2.4457 16.2356C2.4493 16.2405 2.44962 16.2467 2.45354 16.2513C3.46588 17.472 4.73727 18.4079 6.15402 19.0126C6.17036 19.0195 6.18636 19.027 6.2027 19.0338C6.31736 19.0822 6.43332 19.1269 6.54962 19.1707C6.59535 19.188 6.64108 19.2057 6.68747 19.2223C6.78776 19.2583 6.8887 19.2922 6.99029 19.3249C7.0553 19.3458 7.1203 19.3664 7.18596 19.386C7.2758 19.4128 7.36596 19.4386 7.45677 19.4631C7.53648 19.4846 7.61684 19.5046 7.6972 19.5238C7.77854 19.5434 7.8602 19.563 7.9422 19.5803C8.03366 19.5999 8.12611 19.6173 8.21888 19.6343C8.29336 19.648 8.36752 19.6623 8.44265 19.6744C8.54555 19.6911 8.6491 19.7042 8.75298 19.7176C8.81995 19.726 8.88659 19.7358 8.95388 19.743C9.07148 19.7554 9.19006 19.7643 9.30897 19.7724C9.36418 19.7764 9.41906 19.7822 9.47459 19.7852C9.64805 19.795 9.82347 19.8002 10.0002 19.8002C10.1769 19.8002 10.3523 19.795 10.5265 19.7858C10.582 19.7829 10.6369 19.777 10.6921 19.7731C10.811 19.7646 10.9296 19.7561 11.0472 19.7437C11.1145 19.7365 11.1811 19.7267 11.2481 19.7182C11.3519 19.7048 11.4555 19.6917 11.5584 19.6751C11.6332 19.663 11.7077 19.6486 11.7822 19.6349C11.8746 19.6179 11.9671 19.6006 12.0588 19.581C12.1408 19.5634 12.2222 19.5441 12.3038 19.5245C12.3842 19.5049 12.4646 19.485 12.5443 19.4637C12.6351 19.4396 12.7252 19.4134 12.8151 19.3866C12.8807 19.367 12.9457 19.3465 13.0108 19.3256C13.1123 19.2929 13.2133 19.2589 13.3136 19.223C13.3596 19.2063 13.4054 19.1887 13.4514 19.1714C13.568 19.1276 13.6837 19.0825 13.7983 19.0345C13.8147 19.0276 13.8307 19.0201 13.847 19.0133C15.2634 18.4086 16.5352 17.4727 17.5475 16.2519C17.5514 16.2474 17.5517 16.2408 17.5553 16.2363C18.9567 14.5402 19.8002 12.3669 19.8002 10.0002C19.8002 4.59648 15.4039 0.200195 10.0002 0.200195ZM13.9715 18.2387C13.9666 18.241 13.962 18.2436 13.9571 18.2459C13.8405 18.3021 13.7219 18.355 13.6023 18.4066C13.5752 18.4181 13.5484 18.4298 13.5213 18.4413C13.4168 18.485 13.311 18.5265 13.2045 18.5664C13.16 18.583 13.1156 18.5994 13.0709 18.615C12.9765 18.6487 12.8817 18.681 12.786 18.7117C12.7266 18.7307 12.6668 18.7487 12.607 18.7663C12.5221 18.7918 12.4368 18.8163 12.3506 18.8391C12.278 18.8584 12.2049 18.8761 12.1317 18.8934C12.0549 18.9117 11.9785 18.9303 11.9011 18.9466C11.8165 18.9646 11.7312 18.9799 11.6463 18.9953C11.5773 19.008 11.5087 19.0214 11.4392 19.0325C11.3434 19.0476 11.2468 19.0596 11.1504 19.0717C11.0893 19.0796 11.0285 19.0887 10.9668 19.0952C10.8567 19.107 10.7456 19.1145 10.6349 19.1224C10.5856 19.1256 10.5366 19.1312 10.4866 19.1338C10.3249 19.1423 10.1629 19.1469 10.0002 19.1469C9.83752 19.1469 9.67549 19.1423 9.51412 19.1338C9.46446 19.1312 9.41546 19.126 9.36581 19.1224C9.25474 19.1148 9.144 19.107 9.03392 19.0952C8.97218 19.0887 8.91142 19.0796 8.85033 19.0717C8.75396 19.0596 8.65727 19.0476 8.56156 19.0325C8.49198 19.0214 8.42338 19.008 8.35445 18.9953C8.26919 18.9799 8.18393 18.9643 8.09965 18.9466C8.02223 18.9303 7.94546 18.9117 7.86902 18.8934C7.79585 18.8757 7.72268 18.8584 7.65016 18.8391C7.56424 18.8163 7.47866 18.7914 7.39372 18.7663C7.33394 18.7487 7.27416 18.7307 7.21471 18.7117C7.119 18.681 7.02394 18.6487 6.92986 18.615C6.8851 18.599 6.84068 18.5827 6.79625 18.5664C6.68976 18.5265 6.58392 18.485 6.47938 18.4413C6.45227 18.4302 6.42581 18.4184 6.3987 18.407C6.27914 18.3557 6.16056 18.3024 6.04361 18.2462C6.03871 18.244 6.03414 18.2417 6.02924 18.2391C4.8895 17.6876 3.88271 16.9049 3.06572 15.9543C3.69716 13.6291 5.48468 11.7547 7.78442 11.0089C7.82982 11.0367 7.87719 11.0615 7.9239 11.0877C7.95134 11.103 7.97846 11.1194 8.00622 11.1341C8.10357 11.1857 8.20222 11.234 8.30316 11.2775C8.38058 11.3114 8.46062 11.3402 8.54032 11.3696C8.556 11.3751 8.57168 11.3813 8.58736 11.3869C9.03032 11.5437 9.50432 11.6335 10.0002 11.6335C10.4961 11.6335 10.9701 11.5437 11.4127 11.3869C11.4284 11.3813 11.4441 11.3751 11.4597 11.3696C11.5394 11.3402 11.6195 11.3114 11.6969 11.2775C11.7978 11.234 11.8965 11.1857 11.9938 11.1341C12.0216 11.119 12.0487 11.103 12.0762 11.0877C12.1229 11.0615 12.1706 11.0367 12.2163 11.0086C14.516 11.7547 16.3032 13.6291 16.935 15.954C16.118 16.9043 15.1112 17.687 13.9715 18.2387ZM6.40686 7.38686C6.40686 5.40563 8.01896 3.79353 10.0002 3.79353C11.9814 3.79353 13.5935 5.40563 13.5935 7.38686C13.5935 8.64714 12.9399 9.75618 11.955 10.3977C11.8263 10.4814 11.6923 10.5562 11.5548 10.6215C11.5385 10.6294 11.5225 10.6375 11.5061 10.645C10.5601 11.0753 9.44029 11.0753 8.49426 10.645C8.47793 10.6375 8.4616 10.6294 8.44559 10.6215C8.30774 10.5562 8.17413 10.4814 8.04542 10.3977C7.06052 9.75618 6.40686 8.64714 6.40686 7.38686ZM17.425 15.3324C16.6845 13.1457 14.9949 11.3784 12.8363 10.5389C13.6997 9.76108 14.2469 8.638 14.2469 7.38686C14.2469 5.04532 12.3417 3.1402 10.0002 3.1402C7.65865 3.1402 5.75353 5.04532 5.75353 7.38686C5.75353 8.638 6.3007 9.76108 7.1644 10.5389C5.00579 11.3787 3.31627 13.1457 2.57572 15.3324C1.49347 13.83 0.853529 11.9889 0.853529 10.0002C0.853529 4.95679 4.95679 0.853529 10.0002 0.853529C15.0436 0.853529 19.1469 4.95679 19.1469 10.0002C19.1469 11.9889 18.5069 13.83 17.425 15.3324Z" stroke="currentColor" stroke-width="0.4" mask="url(#path-1-outside-1_1128_7453)"></path>
  </symbol>
  <symbol fill="none" xmlns="http://www.w3.org/2000/svg" viewBox="0 0 20 20" id="ic_instagram">
    <path d="M10 0C4.47721 0 0 4.47721 0 10C0 15.5228 4.47721 20 10 20C15.5228 20 20 15.5228 20 10C19.9938 4.47982 15.5202 0.00618492 10 0ZM10 19.3333C4.84538 19.3333 0.666667 15.1546 0.666667 10C0.666667 4.84538 4.84538 0.666667 10 0.666667C15.1546 0.666667 19.3333 4.84538 19.3333 10C19.3275 15.1522 15.1522 19.3275 10 19.3333Z" fill="currentColor"></path>
    <path d="M14.3333 4H5.66667C4.74658 4.00114 4.00114 4.74658 4 5.66667V14.3333C4.00114 15.2534 4.74658 15.9989 5.66667 16H14.3333C15.2534 15.9989 15.9989 15.2534 16 14.3333V5.66667C15.9989 4.74658 15.2534 4.00114 14.3333 4ZM15.3333 14.3333C15.3333 14.8856 14.8856 15.3333 14.3333 15.3333H5.66667C5.11442 15.3333 4.66667 14.8856 4.66667 14.3333V5.66667C4.66667 5.11442 5.11442 4.66667 5.66667 4.66667H14.3333C14.8856 4.66667 15.3333 5.11442 15.3333 5.66667V14.3333Z" fill="currentColor"></path>
    <path d="M10 6.66667C8.15904 6.66667 6.66669 8.15902 6.66669 10C6.66669 11.841 8.15904 13.3333 10 13.3333C11.841 13.3333 13.3334 11.841 13.3334 10C13.3314 8.15983 11.8402 6.66862 10 6.66667ZM10 12.6667C8.5272 12.6667 7.33335 11.4728 7.33335 10C7.33335 8.52718 8.5272 7.33333 10 7.33333C11.4728 7.33333 12.6667 8.52718 12.6667 10C12.6651 11.472 11.472 12.665 10 12.6667Z" fill="currentColor"></path>
    <path d="M13.6667 5.33333C13.1144 5.33333 12.6667 5.78109 12.6667 6.33333C12.6667 6.88558 13.1144 7.33333 13.6667 7.33333C14.2189 7.33333 14.6667 6.88558 14.6667 6.33333C14.6667 5.78109 14.2189 5.33333 13.6667 5.33333ZM13.6667 6.66667C13.4826 6.66667 13.3334 6.51742 13.3334 6.33333C13.3334 6.14925 13.4826 6 13.6667 6C13.8508 6 14 6.14925 14 6.33333C14 6.51742 13.8508 6.66667 13.6667 6.66667Z" fill="currentColor"></path>
  </symbol>
  <symbol fill="none" xmlns="http://www.w3.org/2000/svg" viewBox="0 0 20 20" id="ic_location">
    <path d="M10 0C4.47721 0 0 4.47721 0 10C0 15.5228 4.47721 20 10 20C15.5228 20 20 15.5228 20 10C19.9938 4.47982 15.5202 0.00618492 10 0ZM10 19.3333C4.84538 19.3333 0.666667 15.1546 0.666667 10C0.666667 4.84538 4.84538 0.666667 10 0.666667C15.1546 0.666667 19.3333 4.84538 19.3333 10C19.3275 15.1522 15.1522 19.3275 10 19.3333Z" fill="currentColor"></path>
    <path d="M10 5C8.20794 5 6.75 6.46912 6.75 8.27494C6.75 10.0104 9.70357 14.7065 9.8293 14.9056C9.86646 14.9644 9.93084 15 10 15C10.0692 15 10.1336 14.9644 10.1707 14.9056C10.2964 14.7065 13.25 10.0104 13.25 8.27494C13.25 6.46912 11.7921 5 10 5ZM10 14.4108C9.73272 13.9748 9.19025 13.0722 8.65309 12.0722C7.67291 10.2474 7.15481 8.93431 7.15481 8.27494C7.15479 6.69418 8.43116 5.40816 10 5.40816C11.5689 5.40816 12.8452 6.69418 12.8452 8.27494C12.8452 8.93431 12.3271 10.2474 11.3469 12.0722C10.8098 13.0722 10.2673 13.9748 10 14.4108Z" fill="currentColor"></path>
    <path d="M9.9997 6.55249C9.15198 6.55249 8.46231 7.229 8.46231 8.06053C8.46231 8.89204 9.15198 9.56851 9.9997 9.56851C10.8474 9.56851 11.5371 8.89204 11.5371 8.06053C11.5371 7.229 10.8474 6.55249 9.9997 6.55249ZM9.9997 9.16033C9.3752 9.16033 8.86711 8.66696 8.86711 8.06051C8.86711 7.45404 9.3752 6.96063 9.9997 6.96063C10.6242 6.96063 11.1323 7.45404 11.1323 8.06051C11.1323 8.66696 10.6242 9.16033 9.9997 9.16033Z" fill="currentColor"></path>
  </symbol>
  <symbol fill="none" xmlns="http://www.w3.org/2000/svg" viewBox="0 0 25 11" id="ic_menu">
    <line y1="0.5" x2="25" y2="0.5" stroke="currentColor"></line>
    <line y1="5.5" x2="20" y2="5.5" stroke="currentColor"></line>
    <line y1="10.5" x2="25" y2="10.5" stroke="currentColor"></line>
  </symbol>
  <symbol fill="none" xmlns="http://www.w3.org/2000/svg" viewBox="0 0 7 2" id="ic_minus">
    <path d="M1.68074 2C1.3205 2 1.0472 1.91246 0.860868 1.73737C0.686955 1.56229 0.599998 1.31987 0.599998 1.0101C0.599998 0.700336 0.686955 0.457912 0.860868 0.282828C1.0472 0.0942761 1.3205 0 1.68074 0H5.51925C5.8795 0 6.14658 0.0942761 6.3205 0.282828C6.50683 0.457912 6.6 0.700336 6.6 1.0101C6.6 1.31987 6.50683 1.56229 6.3205 1.73737C6.14658 1.91246 5.8795 2 5.51925 2H1.68074Z" fill="currentColor"></path>
  </symbol>
  <symbol fill="none" xmlns="http://www.w3.org/2000/svg" viewBox="0 0 24 4" id="ic_minus2">
    <path d="M2 2H22" stroke="currentColor" stroke-width="3" stroke-linecap="round"></path>
  </symbol>
  <symbol fill="none" xmlns="http://www.w3.org/2000/svg" viewBox="0 0 25 25" id="ic_payment">
    <path d="M15 5H9V11.875H7V13.125H9V15H7V16.25H9V20H10.3333V16.25H16.3333V15H10.3333V13.125H15C16.0605 13.1238 17.0772 12.7284 17.8271 12.0254C18.5769 11.3224 18.9988 10.3692 19 9.375V8.75C18.9988 7.75579 18.5769 6.80264 17.8271 6.09963C17.0772 5.39662 16.0605 5.00116 15 5ZM17.6667 9.375C17.6658 10.0378 17.3846 10.6732 16.8846 11.1419C16.3847 11.6105 15.707 11.8742 15 11.875H10.3333V6.25H15C15.707 6.25083 16.3847 6.51448 16.8846 6.98315C17.3846 7.45181 17.6658 8.08721 17.6667 8.75V9.375Z" fill="currentColor"></path>
    <rect x="0.5" y="0.5" width="24" height="24" rx="12" stroke="currentColor"></rect>
  </symbol>
  <symbol fill="none" xmlns="http://www.w3.org/2000/svg" viewBox="0 0 21 20" id="ic_phone">
    <path d="M10.3334 0C4.81059 0 0.333374 4.47721 0.333374 10C0.333374 15.5228 4.81059 20 10.3334 20C15.8562 20 20.3334 15.5228 20.3334 10C20.3272 4.47982 15.8536 0.00618492 10.3334 0ZM10.3334 19.3333C5.17875 19.3333 1.00004 15.1546 1.00004 10C1.00004 4.84538 5.17875 0.666667 10.3334 0.666667C15.488 0.666667 19.6667 4.84538 19.6667 10C19.6608 15.1522 15.4856 19.3275 10.3334 19.3333Z" fill="currentColor"></path>
    <path d="M14.7157 11.2194L11.8864 10.7194C11.7432 10.6942 11.6003 10.7645 11.5331 10.8934L10.847 12.208C9.63318 11.6704 8.66313 10.6999 8.12602 9.4857L9.43933 8.79966C9.56824 8.73244 9.63855 8.58954 9.61332 8.44631L9.11332 5.61736C9.0977 5.52833 9.04659 5.44956 8.97172 5.39894C8.25639 4.91652 7.33321 4.86801 6.57133 5.27296C5.80945 5.67807 5.33337 6.47056 5.33337 7.33335C5.33809 11.5656 8.76778 14.9953 13 15C13.863 14.9999 14.6555 14.5235 15.0604 13.7614C15.4652 12.9992 15.4164 12.0759 14.9333 11.3607C14.8829 11.2862 14.8044 11.235 14.7157 11.2194ZM13 14.3334C9.13595 14.329 6.00444 11.1975 6.00004 7.33335C5.99988 6.74123 6.31401 6.19354 6.82507 5.89438C7.33614 5.59539 7.96765 5.59002 8.48376 5.88039L8.91475 8.32228L7.54806 9.03566C7.39832 9.11379 7.33061 9.29136 7.39034 9.4494C7.99972 11.0614 9.27185 12.3343 10.8837 12.9444C11.0417 13.0041 11.2193 12.9364 11.2974 12.7866L12.0111 11.4199L14.453 11.8511C14.7427 12.367 14.7369 12.9979 14.438 13.5087C14.139 14.0192 13.5918 14.3332 13 14.3334Z" fill="currentColor"></path>
  </symbol>
  <symbol fill="none" xmlns="http://www.w3.org/2000/svg" viewBox="0 0 9 8" id="ic_plus">
    <path d="M7.87869 3.27869C8.08635 3.27869 8.25574 3.34973 8.38689 3.4918C8.52897 3.62295 8.60001 3.79235 8.60001 4C8.60001 4.20765 8.52897 4.38251 8.38689 4.52459C8.25574 4.65574 8.08635 4.72131 7.87869 4.72131H5.32132V7.2623C5.32132 7.46995 5.25028 7.64481 5.1082 7.78689C4.97706 7.92896 4.80766 8 4.60001 8C4.39236 8 4.21749 7.92896 4.07542 7.78689C3.94427 7.64481 3.87869 7.46995 3.87869 7.2623V4.72131H1.32132C1.11367 4.72131 0.938804 4.65574 0.796727 4.52459C0.66558 4.38251 0.600006 4.20765 0.600006 4C0.600006 3.79235 0.66558 3.62295 0.796727 3.4918C0.938804 3.34973 1.11367 3.27869 1.32132 3.27869H3.87869V0.721311C3.87869 0.513662 3.94427 0.344263 4.07542 0.213115C4.21749 0.0710383 4.39236 0 4.60001 0C4.80766 0 4.97706 0.0710383 5.1082 0.213115C5.25028 0.344263 5.32132 0.513662 5.32132 0.721311V3.27869H7.87869Z" fill="currentColor"></path>
  </symbol>
  <symbol fill="none" xmlns="http://www.w3.org/2000/svg" viewBox="0 0 24 24" id="ic_plus2">
    <path d="M2 12H22M12 22V2" stroke="currentColor" stroke-width="3" stroke-linecap="round"></path>
  </symbol>
  <symbol fill="none" xmlns="http://www.w3.org/2000/svg" viewBox="0 0 20 21" id="ic_search">
    <path d="M9.92175 5.5C12.6357 5.5 14.8436 7.70795 14.8436 10.4219C14.8436 11.6159 14.4163 12.7119 13.7065 13.5651L16.8615 16.6987C17.0451 16.8811 17.0461 17.1779 16.8637 17.3616C16.7721 17.4538 16.6516 17.5 16.5311 17.5C16.4117 17.5 16.2923 17.4546 16.2008 17.3638L13.0415 14.226C12.1917 14.9242 11.1048 15.3438 9.92175 15.3438C9.07739 15.3438 8.24419 15.1262 7.51228 14.7145C7.28663 14.5877 7.20659 14.3019 7.3335 14.0762C7.46039 13.8506 7.74619 13.7705 7.97185 13.8974C8.56374 14.2303 9.23801 14.4062 9.92175 14.4062C12.1187 14.4062 13.9061 12.6189 13.9061 10.4219C13.9061 8.22489 12.1187 6.4375 9.92175 6.4375C7.72477 6.4375 5.93738 8.22489 5.93738 10.4219C5.93738 11.114 6.11745 11.7955 6.45809 12.3928C6.58636 12.6176 6.50803 12.9039 6.28317 13.0322C6.05829 13.1604 5.77203 13.0821 5.64375 12.8573C5.22253 12.1187 4.99988 11.2766 4.99988 10.4219C4.99988 7.70795 7.20783 5.5 9.92175 5.5Z" fill="currentColor"></path>
    <circle cx="9.99988" cy="10.5" r="9.5" stroke="currentColor"></circle>
  </symbol>
  <symbol fill="none" xmlns="http://www.w3.org/2000/svg" viewBox="0 0 24 24" id="ic_send">
    <circle cx="12" cy="12" r="11.5" stroke="currentColor"></circle>
    <path d="M10 17L15 12L10 7" stroke="currentColor"></path>
  </symbol>
  <symbol fill="none" xmlns="http://www.w3.org/2000/svg" viewBox="0 0 16 9" id="ic_spoler_arrow">
    <path d="M0.85791 8L7.92898 0.928932L15 8" stroke="currentColor" stroke-linecap="round"></path>
  </symbol>
  <symbol fill="none" xmlns="http://www.w3.org/2000/svg" viewBox="0 0 25 25" id="ic_star">
    <path d="M22.1704 8.62062L15.9716 7.71974L13.2006 2.10206C13.125 1.94825 13.0005 1.82374 12.8466 1.74806C12.4609 1.55763 11.9921 1.71632 11.7993 2.10206L9.02828 7.71974L2.82955 8.62062C2.65865 8.64503 2.5024 8.72559 2.38277 8.84767C2.23815 8.99631 2.15845 9.1963 2.1612 9.40368C2.16395 9.61105 2.24891 9.80886 2.39742 9.95362L6.88229 14.3262L5.82272 20.5005C5.79787 20.6441 5.81376 20.7918 5.86859 20.9269C5.92343 21.062 6.015 21.1789 6.13294 21.2646C6.25088 21.3503 6.39046 21.4012 6.53585 21.4115C6.68124 21.4219 6.82663 21.3913 6.95553 21.3233L12.5 18.4082L18.0444 21.3233C18.1958 21.4038 18.3715 21.4307 18.54 21.4014C18.9648 21.3281 19.2505 20.9253 19.1772 20.5005L18.1176 14.3262L22.6025 9.95362C22.7246 9.83399 22.8051 9.67774 22.8296 9.50684C22.8955 9.0796 22.5976 8.68409 22.1704 8.62062Z" fill="currentColor"></path>
  </symbol>
  <symbol fill="none" xmlns="http://www.w3.org/2000/svg" viewBox="0 0 25 25" id="ic_star_empty">
    <path d="M11.5347 2.74271C11.868 1.86354 13.1295 1.86354 13.4639 2.74271L15.6201 8.71562C15.7712 9.11146 16.1555 9.375 16.5847 9.375H21.8837C22.8628 9.375 23.2899 10.5937 22.5201 11.1906L18.7493 14.5833C18.5804 14.7132 18.4569 14.8932 18.3967 15.0976C18.3364 15.3019 18.3424 15.5201 18.4139 15.7208L19.791 21.5573C20.1264 22.4948 19.041 23.3 18.2201 22.7229L13.0982 19.4729C12.9228 19.3496 12.7137 19.2835 12.4993 19.2835C12.2849 19.2835 12.0757 19.3496 11.9003 19.4729L6.77845 22.7229C5.95866 23.3 4.8722 22.4937 5.20762 21.5573L6.5847 15.7208C6.65614 15.5201 6.66216 15.3019 6.6019 15.0976C6.54164 14.8932 6.4182 14.7132 6.24929 14.5833L2.47845 11.1906C1.70762 10.5937 2.13679 9.375 3.11387 9.375H8.41283C8.62146 9.37569 8.8254 9.31302 8.99764 9.19528C9.16988 9.07754 9.30231 8.91028 9.37741 8.71562L11.5337 2.74271H11.5347Z" stroke="currentColor" stroke-width="2.08333" stroke-linecap="round" stroke-linejoin="round"></path>
  </symbol>
  <symbol fill="none" xmlns="http://www.w3.org/2000/svg" viewBox="0 0 20 20" id="ic_time">
    <path d="M19.5605 9.56329C19.5594 4.28054 15.276 -0.00107173 9.99306 -3.6149e-06C4.71031 0.0010645 0.428696 4.28466 0.429764 9.56741C0.43068 13.7286 3.12157 17.4118 7.08565 18.6775C7.12349 18.6894 7.16286 18.6955 7.20238 18.6954C7.27776 18.6952 7.35161 18.6751 7.41646 18.6368C7.50084 18.5869 7.56386 18.5075 7.59346 18.414L10.0091 10.7577C10.6695 10.7544 11.202 10.2162 11.1985 9.55597C11.1951 8.89557 10.6571 8.36303 9.99672 8.36639C9.81911 8.36715 9.64378 8.40805 9.48418 8.48602L6.29295 5.29434C6.13457 5.14145 5.88234 5.14587 5.72945 5.3041C5.58022 5.45868 5.58022 5.70343 5.72945 5.858L8.91899 9.0512C8.67424 9.55078 8.81416 10.1538 9.25423 10.4944L6.95259 17.7899C2.40395 16.1143 0.0748445 11.0687 1.75041 6.52008C3.42598 1.97143 8.4716 -0.35767 13.0202 1.3179C17.5689 2.99347 19.898 8.03924 18.2224 12.5877C17.4038 14.81 15.7218 16.6072 13.5586 17.5711L13.3099 16.3997C13.2644 16.1844 13.0527 16.0467 12.8374 16.0924C12.7695 16.1069 12.7065 16.1388 12.6546 16.185L10.2566 18.326C10.0921 18.4723 10.0774 18.7242 10.2239 18.8887C10.2715 18.9421 10.3326 18.9818 10.4009 19.0036L13.4626 19.9808C13.6721 20.0481 13.8966 19.9329 13.9639 19.7232C13.9852 19.657 13.9887 19.5865 13.9744 19.5184L13.7299 18.369C17.2701 16.8765 19.5687 13.4051 19.5605 9.56329ZM9.99519 9.16473C10.2152 9.16473 10.3938 9.34326 10.3938 9.56329C10.3938 9.78347 10.2152 9.96185 9.99519 9.96185C9.77501 9.96185 9.59663 9.78347 9.59663 9.56329C9.59663 9.34326 9.77501 9.16473 9.99519 9.16473ZM11.3079 18.4547L12.673 17.2371L13.0497 19.0123L11.3079 18.4547Z" fill="currentColor"></path>
    <path d="M9.59656 1.99065V2.78777C9.59656 3.00795 9.77493 3.18633 9.99512 3.18633C10.2151 3.18633 10.3937 3.00795 10.3937 2.78777V1.99065C10.3937 1.77062 10.2151 1.59209 9.99512 1.59209C9.77493 1.59209 9.59656 1.77062 9.59656 1.99065Z" fill="currentColor"></path>
    <path d="M2.42256 9.16472C2.20238 9.16472 2.024 9.34324 2.024 9.56328C2.024 9.78346 2.20238 9.96184 2.42256 9.96184H3.21968C3.43987 9.96184 3.61824 9.78346 3.61824 9.56328C3.61824 9.34324 3.43987 9.16472 3.21968 9.16472H2.42256Z" fill="currentColor"></path>
    <path d="M17.5675 9.96184C17.7877 9.96184 17.9661 9.78346 17.9661 9.56328C17.9661 9.34324 17.7877 9.16472 17.5675 9.16472H16.7704C16.5504 9.16472 16.3719 9.34324 16.3719 9.56328C16.3719 9.78346 16.5504 9.96184 16.7704 9.96184H17.5675Z" fill="currentColor"></path>
  </symbol>
  <symbol fill="none" xmlns="http://www.w3.org/2000/svg" viewBox="0 0 30 31" id="ic_user">
    <path d="M15 0.5C6.729 0.5 0 7.229 0 15.5C0 19.1225 1.291 22.449 3.437 25.044C3.4425 25.0515 3.443 25.061 3.449 25.068C4.9985 26.9365 6.9445 28.369 9.113 29.2945C9.138 29.305 9.1625 29.3165 9.1875 29.327C9.363 29.401 9.5405 29.4695 9.7185 29.5365C9.7885 29.563 9.8585 29.59 9.9295 29.6155C10.083 29.6705 10.2375 29.7225 10.393 29.7725C10.4925 29.8045 10.592 29.836 10.6925 29.866C10.83 29.907 10.968 29.9465 11.107 29.984C11.229 30.017 11.352 30.0475 11.475 30.077C11.5995 30.107 11.7245 30.137 11.85 30.1635C11.99 30.1935 12.1315 30.22 12.2735 30.246C12.3875 30.267 12.501 30.289 12.616 30.3075C12.7735 30.333 12.932 30.353 13.091 30.3735C13.1935 30.3865 13.2955 30.4015 13.3985 30.4125C13.5785 30.4315 13.76 30.445 13.942 30.4575C14.0265 30.4635 14.1105 30.4725 14.1955 30.477C14.461 30.492 14.7295 30.5 15 30.5C15.2705 30.5 15.539 30.492 15.8055 30.478C15.8905 30.4735 15.9745 30.4645 16.059 30.4585C16.241 30.4455 16.4225 30.4325 16.6025 30.4135C16.7055 30.4025 16.8075 30.3875 16.91 30.3745C17.069 30.354 17.2275 30.334 17.385 30.3085C17.4995 30.29 17.6135 30.268 17.7275 30.247C17.869 30.221 18.0105 30.1945 18.151 30.1645C18.2765 30.1375 18.401 30.108 18.526 30.078C18.649 30.048 18.772 30.0175 18.894 29.985C19.033 29.948 19.171 29.908 19.3085 29.867C19.409 29.837 19.5085 29.8055 19.608 29.7735C19.7635 29.7235 19.918 29.6715 20.0715 29.6165C20.142 29.591 20.212 29.564 20.2825 29.5375C20.461 29.4705 20.638 29.4015 20.8135 29.328C20.8385 29.3175 20.863 29.306 20.888 29.2955C23.056 28.37 25.0025 26.9375 26.552 25.069C26.558 25.062 26.5585 25.052 26.564 25.045C28.709 22.449 30 19.1225 30 15.5C30 7.229 23.271 0.5 15 0.5ZM21.0785 28.11C21.071 28.1135 21.064 28.1175 21.0565 28.121C20.878 28.207 20.6965 28.288 20.5135 28.367C20.472 28.3845 20.431 28.4025 20.3895 28.42C20.2295 28.487 20.0675 28.5505 19.9045 28.6115C19.8365 28.637 19.7685 28.662 19.7 28.686C19.5555 28.7375 19.4105 28.787 19.264 28.834C19.173 28.863 19.0815 28.8905 18.99 28.9175C18.86 28.9565 18.7295 28.994 18.5975 29.029C18.4865 29.0585 18.3745 29.0855 18.2625 29.112C18.145 29.14 18.028 29.1685 17.9095 29.1935C17.78 29.221 17.6495 29.2445 17.5195 29.268C17.414 29.2875 17.309 29.308 17.2025 29.325C17.056 29.348 16.908 29.3665 16.7605 29.385C16.667 29.397 16.574 29.411 16.4795 29.421C16.311 29.439 16.141 29.4505 15.9715 29.4625C15.896 29.4675 15.821 29.476 15.7445 29.48C15.497 29.493 15.249 29.5 15 29.5C14.751 29.5 14.503 29.493 14.256 29.48C14.18 29.476 14.105 29.468 14.029 29.4625C13.859 29.451 13.6895 29.439 13.521 29.421C13.4265 29.411 13.3335 29.397 13.24 29.385C13.0925 29.3665 12.9445 29.348 12.798 29.325C12.6915 29.308 12.5865 29.2875 12.481 29.268C12.3505 29.2445 12.22 29.2205 12.091 29.1935C11.9725 29.1685 11.855 29.14 11.738 29.112C11.626 29.085 11.514 29.0585 11.403 29.029C11.2715 28.994 11.1405 28.956 11.0105 28.9175C10.919 28.8905 10.8275 28.863 10.7365 28.834C10.59 28.787 10.4445 28.7375 10.3005 28.686C10.232 28.6615 10.164 28.6365 10.096 28.6115C9.933 28.5505 9.771 28.487 9.611 28.42C9.5695 28.403 9.529 28.385 9.4875 28.3675C9.3045 28.289 9.123 28.2075 8.944 28.1215C8.9365 28.118 8.9295 28.1145 8.922 28.1105C7.1775 27.2665 5.6365 26.0685 4.386 24.6135C5.3525 21.0545 8.0885 18.1855 11.6085 17.044C11.678 17.0865 11.7505 17.1245 11.822 17.1645C11.864 17.188 11.9055 17.213 11.948 17.2355C12.097 17.3145 12.248 17.3885 12.4025 17.455C12.521 17.507 12.6435 17.551 12.7655 17.596C12.7895 17.6045 12.8135 17.614 12.8375 17.6225C13.5155 17.8625 14.241 18 15 18C15.759 18 16.4845 17.8625 17.162 17.6225C17.186 17.614 17.21 17.6045 17.234 17.596C17.356 17.551 17.4785 17.507 17.597 17.455C17.7515 17.3885 17.9025 17.3145 18.0515 17.2355C18.094 17.2125 18.1355 17.188 18.1775 17.1645C18.249 17.1245 18.322 17.0865 18.392 17.0435C21.912 18.1855 24.6475 21.0545 25.6145 24.613C24.364 26.0675 22.823 27.2655 21.0785 28.11ZM9.5 11.5C9.5 8.4675 11.9675 6 15 6C18.0325 6 20.5 8.4675 20.5 11.5C20.5 13.429 19.4995 15.1265 17.992 16.1085C17.795 16.2365 17.59 16.351 17.3795 16.451C17.3545 16.463 17.33 16.4755 17.305 16.487C15.857 17.1455 14.143 17.1455 12.695 16.487C12.67 16.4755 12.645 16.463 12.6205 16.451C12.4095 16.351 12.205 16.2365 12.008 16.1085C10.5005 15.1265 9.5 13.429 9.5 11.5ZM26.3645 23.6615C25.231 20.3145 22.645 17.6095 19.341 16.3245C20.6625 15.134 21.5 13.415 21.5 11.5C21.5 7.916 18.584 5 15 5C11.416 5 8.5 7.916 8.5 11.5C8.5 13.415 9.3375 15.134 10.6595 16.3245C7.3555 17.61 4.7695 20.3145 3.636 23.6615C1.9795 21.362 1 18.544 1 15.5C1 7.7805 7.2805 1.5 15 1.5C22.7195 1.5 29 7.7805 29 15.5C29 18.544 28.0205 21.362 26.3645 23.6615Z" fill="currentColor"></path>
  </symbol>
  <symbol fill="none" xmlns="http://www.w3.org/2000/svg" viewBox="0 0 20 20" id="ic_vkontakte">
    <path d="M10.0604 13.5C11.507 13.5 10.9912 12.6208 11.1028 12.368C11.1012 12.1792 11.0995 11.9976 11.1062 11.8872C11.1978 11.912 11.4141 12.0172 11.8608 12.434C12.5503 13.102 12.7266 13.5 13.2837 13.5H14.3091C14.6341 13.5 14.8032 13.3708 14.8878 13.2624C14.9695 13.1576 15.0495 12.9736 14.962 12.6872C14.7332 11.9976 13.3991 10.8068 13.3162 10.6812C13.3287 10.658 13.3487 10.6272 13.3591 10.6112H13.3582C13.6216 10.2772 14.6266 8.8316 14.7745 8.2532C14.7749 8.2524 14.7753 8.2512 14.7753 8.25C14.8553 7.986 14.782 7.8148 14.7061 7.718C14.592 7.5732 14.4103 7.5 14.1649 7.5H13.1395C12.7962 7.5 12.5358 7.666 12.4041 7.9688C12.1837 8.5068 11.5645 9.6132 11.1003 10.0048C11.0862 9.45 11.0958 9.0264 11.1033 8.7116C11.1183 8.0976 11.1666 7.5 10.5029 7.5H8.89121C8.47538 7.5 8.07747 7.936 8.50829 8.4536C8.88496 8.9072 8.64371 9.16 8.72496 10.4184C8.4083 10.0924 7.84497 9.212 7.44664 8.0868C7.33497 7.7824 7.16581 7.5004 6.68956 7.5004H5.66416C5.24833 7.5004 5 7.718 5 8.0824C5 8.9008 6.88706 13.5 10.0604 13.5ZM6.68956 8.1004C6.77998 8.1004 6.78915 8.1004 6.85623 8.2832C7.26414 9.4364 8.17913 11.1428 8.84746 11.1428C9.34954 11.1428 9.34954 10.6488 9.34954 10.4628L9.34912 8.982C9.32162 8.492 9.13579 8.248 9.01371 8.1L10.4754 8.1016C10.4762 8.1084 10.467 9.7396 10.4795 10.1348C10.4795 10.696 10.9437 11.0176 11.6683 10.3136C12.4328 9.4852 12.9616 8.2468 12.9828 8.1964C13.0141 8.1244 13.0412 8.1 13.1395 8.1H14.1649H14.1691C14.1686 8.1012 14.1686 8.1024 14.1682 8.1036C14.0745 8.5236 13.1491 9.862 12.8395 10.2776C12.8345 10.284 12.8299 10.2908 12.8253 10.2976C12.6891 10.5112 12.5783 10.7472 12.8441 11.0792H12.8445C12.8687 11.1072 12.9316 11.1728 13.0232 11.264C13.3082 11.5464 14.2857 12.512 14.3724 12.896C14.3149 12.9048 14.2524 12.8984 13.2837 12.9004C13.0774 12.9004 12.9162 12.6044 12.3008 12.0084C11.7474 11.4916 11.3883 11.2804 11.0612 11.2804C10.4262 11.2804 10.4724 11.7752 10.4783 12.3736C10.4804 13.0224 10.4762 12.8172 10.4808 12.858C10.4437 12.872 10.3374 12.9 10.0604 12.9C7.41664 12.9 5.69499 8.8716 5.62874 8.1016C5.65166 8.0996 5.96707 8.1008 6.68956 8.1004Z" fill="currentColor"></path>
    <path d="M10 0C4.47721 0 0 4.47721 0 10C0 15.5228 4.47721 20 10 20C15.5228 20 20 15.5228 20 10C19.9938 4.47982 15.5202 0.00618492 10 0ZM10 19.3333C4.84538 19.3333 0.666667 15.1546 0.666667 10C0.666667 4.84538 4.84538 0.666667 10 0.666667C15.1546 0.666667 19.3333 4.84538 19.3333 10C19.3275 15.1522 15.1522 19.3275 10 19.3333Z" fill="currentColor"></path>
  </symbol>
  <symbol fill="none" xmlns="http://www.w3.org/2000/svg" viewBox="0 0 20 20" id="ic_youtube">
    <path d="M10 0C4.47721 0 0 4.47721 0 10C0 15.5228 4.47721 20 10 20C15.5228 20 20 15.5228 20 10C19.9938 4.47982 15.5202 0.00618492 10 0ZM10 19.3333C4.84538 19.3333 0.666667 15.1546 0.666667 10C0.666667 4.84538 4.84538 0.666667 10 0.666667C15.1546 0.666667 19.3333 4.84538 19.3333 10C19.3275 15.1522 15.1522 19.3275 10 19.3333Z" fill="currentColor"></path>
    <path d="M14.3333 5.33333H5.66667C4.74658 5.33447 4.00114 6.07992 4 7V13C4.00114 13.9201 4.74658 14.6655 5.66667 14.6667H14.3333C15.2534 14.6655 15.9989 13.9201 16 13V7C15.9989 6.07992 15.2534 5.33447 14.3333 5.33333ZM15.3333 13C15.3333 13.5522 14.8856 14 14.3333 14H5.66667C5.11442 14 4.66667 13.5522 4.66667 13V7C4.66667 6.44775 5.11442 6 5.66667 6H14.3333C14.8856 6 15.3333 6.44775 15.3333 7V13Z" fill="currentColor"></path>
    <path d="M12.5763 9.07126L8.37126 7.38929C8.06315 7.26608 7.71403 7.30368 7.43929 7.48988C7.16455 7.67591 7 7.98614 7 8.31801V11.6819C7 12.0138 7.16455 12.324 7.43929 12.5101C7.71403 12.6963 8.06315 12.7339 8.37126 12.6107L12.5763 10.9287C12.9562 10.7768 13.2054 10.409 13.2054 9.99998C13.2054 9.59096 12.9562 9.22312 12.5763 9.07126ZM12.3286 10.3094L8.1237 11.9914C8.021 12.0324 7.90462 12.0198 7.81315 11.9578C7.72168 11.8958 7.66667 11.7925 7.66667 11.6819V8.31801C7.66667 8.13392 7.81592 7.98467 8 7.98467C8.04281 7.98467 8.08512 7.99297 8.12467 8.00892L12.3296 9.69106C12.4561 9.74168 12.5387 9.86423 12.5387 10.0003C12.5387 10.1365 12.4561 10.2589 12.3296 10.3097L12.3286 10.3094Z" fill="currentColor"></path>
  </symbol>
</svg>